<?xml version="1.0" encoding="UTF-8"?> <svg xmlns="http://www.w3.org/2000/svg" xmlns:xlink="http://www.w3.org/1999/xlink" viewBox="0 0 1599 1100"><defs><style>.cls-1{fill:#1a3783;}.cls-2{isolation:isolate;}.cls-3{fill:#142760;}.cls-4{fill:#fcc453;}.cls-5{fill:#cbe2fd;}.cls-14,.cls-27,.cls-29,.cls-32,.cls-34,.cls-36,.cls-39,.cls-41,.cls-44,.cls-6,.cls-8{mix-blend-mode:multiply;}.cls-34,.cls-36,.cls-39,.cls-41,.cls-44,.cls-45,.cls-6,.cls-8{opacity:0.2;}.cls-6{fill:url(#linear-gradient);}.cls-10,.cls-30,.cls-33,.cls-35,.cls-37,.cls-38,.cls-40,.cls-42,.cls-43,.cls-7,.cls-9{mix-blend-mode:screen;opacity:0.8;}.cls-7{fill:url(#linear-gradient-2);}.cls-8{fill:url(#linear-gradient-3);}.cls-9{fill:url(#linear-gradient-4);}.cls-10{fill:url(#linear-gradient-5);}.cls-11,.cls-31{fill:none;stroke:#3285f5;stroke-linecap:round;stroke-miterlimit:10;}.cls-11{stroke-width:2px;}.cls-12{clip-path:url(#clip-path);}.cls-13{fill:#59bb87;}.cls-14{opacity:0.9;fill:url(#linear-gradient-6);}.cls-15{fill:#dc6f37;}.cls-16{opacity:0.5;}.cls-17{fill:url(#linear-gradient-7);}.cls-18{fill:url(#linear-gradient-8);}.cls-19{fill:url(#linear-gradient-9);}.cls-20{fill:url(#linear-gradient-10);}.cls-21{fill:url(#linear-gradient-11);}.cls-22{fill:url(#linear-gradient-12);}.cls-23{fill:url(#linear-gradient-13);}.cls-24{fill:url(#linear-gradient-14);}.cls-25{fill:url(#linear-gradient-15);}.cls-26{fill:url(#linear-gradient-16);}.cls-27{fill:url(#linear-gradient-17);}.cls-28{fill:#e79866;}.cls-29{fill:url(#linear-gradient-18);}.cls-30{fill:url(#linear-gradient-19);}.cls-31{stroke-width:3px;}.cls-32{fill:url(#linear-gradient-20);}.cls-33{fill:url(#linear-gradient-21);}.cls-34{fill:url(#linear-gradient-22);}.cls-35{fill:url(#linear-gradient-23);}.cls-36{fill:url(#linear-gradient-24);}.cls-37{fill:url(#linear-gradient-25);}.cls-38{fill:url(#linear-gradient-26);}.cls-39{fill:url(#linear-gradient-27);}.cls-40{fill:url(#linear-gradient-28);}.cls-41{fill:url(#linear-gradient-29);}.cls-42{fill:url(#linear-gradient-30);}.cls-43{fill:url(#linear-gradient-31);}.cls-44{fill:url(#linear-gradient-32);}.cls-45{fill:url(#linear-gradient-33);}</style><linearGradient id="linear-gradient" x1="1224.78" y1="460.32" x2="1273.56" y2="460.32" gradientTransform="matrix(0.56, 0.83, -0.83, 0.56, 784.83, -712.59)" gradientUnits="userSpaceOnUse"><stop offset="0.06" stop-color="#1a3783" stop-opacity="0"></stop><stop offset="1" stop-color="#0f172f"></stop></linearGradient><linearGradient id="linear-gradient-2" x1="1232.73" y1="455.8" x2="1282.63" y2="455.8" gradientTransform="matrix(0.56, 0.83, -0.83, 0.56, 784.83, -712.59)" gradientUnits="userSpaceOnUse"><stop offset="0.13" stop-color="#fff" stop-opacity="0"></stop><stop offset="0.2" stop-color="#fffefc" stop-opacity="0.04"></stop><stop offset="0.33" stop-color="#fffcf4" stop-opacity="0.14"></stop><stop offset="0.49" stop-color="#fef8e8" stop-opacity="0.32"></stop><stop offset="0.69" stop-color="#fef3d6" stop-opacity="0.55"></stop><stop offset="0.9" stop-color="#fdecc0" stop-opacity="0.85"></stop><stop offset="1" stop-color="#fde9b5"></stop></linearGradient><linearGradient id="linear-gradient-3" x1="1196.15" y1="570.35" x2="1177.42" y2="578.43" gradientTransform="translate(573.11 -603.28) rotate(41.27)" gradientUnits="userSpaceOnUse"><stop offset="0.06" stop-color="#1a3783" stop-opacity="0"></stop><stop offset="1" stop-color="#000e1d"></stop></linearGradient><linearGradient id="linear-gradient-4" x1="1191.94" y1="576.64" x2="1200.45" y2="576.64" gradientTransform="translate(573.11 -603.28) rotate(41.27)" xlink:href="#linear-gradient-2"></linearGradient><linearGradient id="linear-gradient-5" x1="1188.69" y1="588.4" x2="1193.51" y2="588.4" gradientTransform="translate(573.11 -603.28) rotate(41.27)" xlink:href="#linear-gradient-2"></linearGradient><clipPath id="clip-path"><circle class="cls-1" cx="856.69" cy="329.24" r="325.07" transform="translate(18.11 702.21) rotate(-45)"></circle></clipPath><linearGradient id="linear-gradient-6" x1="923.34" y1="432.75" x2="422.07" y2="471.94" gradientTransform="matrix(1, 0, 0, 1, 0, 0)" xlink:href="#linear-gradient"></linearGradient><linearGradient id="linear-gradient-7" x1="658.83" y1="1051.11" x2="674.12" y2="1042.29" gradientTransform="translate(427.9 -335.54) rotate(26.88)" gradientUnits="userSpaceOnUse"><stop offset="0" stop-color="#fff" stop-opacity="0"></stop><stop offset="1" stop-color="#fff"></stop></linearGradient><linearGradient id="linear-gradient-8" x1="663.64" y1="1059.46" x2="667.53" y2="1057.22" xlink:href="#linear-gradient-7"></linearGradient><linearGradient id="linear-gradient-9" x1="765.82" y1="1137.45" x2="782.04" y2="1128.09" gradientTransform="translate(737.77 -424.7) rotate(43.15)" xlink:href="#linear-gradient-7"></linearGradient><linearGradient id="linear-gradient-10" x1="646.97" y1="1057.14" x2="655.47" y2="1052.23" xlink:href="#linear-gradient-7"></linearGradient><linearGradient id="linear-gradient-11" x1="682.21" y1="1051.28" x2="686.54" y2="1048.78" xlink:href="#linear-gradient-7"></linearGradient><linearGradient id="linear-gradient-12" x1="677.56" y1="1037.73" x2="684" y2="1034.02" xlink:href="#linear-gradient-7"></linearGradient><linearGradient id="linear-gradient-13" x1="713.73" y1="1036.07" x2="718.55" y2="1033.29" xlink:href="#linear-gradient-7"></linearGradient><linearGradient id="linear-gradient-14" x1="813.97" y1="1116.31" x2="839.18" y2="1101.75" gradientTransform="translate(737.77 -424.7) rotate(43.15)" xlink:href="#linear-gradient-7"></linearGradient><linearGradient id="linear-gradient-15" x1="791.76" y1="1089.84" x2="800.12" y2="1085.01" gradientTransform="translate(737.77 -424.7) rotate(43.15)" xlink:href="#linear-gradient-7"></linearGradient><linearGradient id="linear-gradient-16" x1="797.01" y1="1103.12" x2="817.01" y2="1091.58" gradientTransform="translate(737.77 -424.7) rotate(43.15)" xlink:href="#linear-gradient-7"></linearGradient><linearGradient id="linear-gradient-17" x1="597.96" y1="938.25" x2="516.38" y2="986.82" gradientUnits="userSpaceOnUse"><stop offset="0.06" stop-color="#dc6f37" stop-opacity="0"></stop><stop offset="1" stop-color="#dc6f37"></stop></linearGradient><linearGradient id="linear-gradient-18" x1="524.74" y1="903" x2="513.79" y2="980.77" xlink:href="#linear-gradient-17"></linearGradient><linearGradient id="linear-gradient-19" x1="550.83" y1="961.53" x2="598.87" y2="961.53" gradientUnits="userSpaceOnUse"><stop offset="0" stop-color="#fff" stop-opacity="0"></stop><stop offset="1" stop-color="#fde9b5"></stop></linearGradient><linearGradient id="linear-gradient-20" x1="681.84" y1="821.15" x2="732.07" y2="733.39" gradientUnits="userSpaceOnUse"><stop offset="0.25" stop-color="#08163c" stop-opacity="0"></stop><stop offset="1" stop-color="#08163c"></stop></linearGradient><linearGradient id="linear-gradient-21" x1="831.25" y1="388.11" x2="1202.63" y2="225.28" gradientTransform="matrix(1, 0, 0, 1, 0, 0)" xlink:href="#linear-gradient-2"></linearGradient><linearGradient id="linear-gradient-22" x1="498.39" y1="532.48" x2="582.72" y2="532.48" gradientTransform="translate(303.97 -365.31) rotate(29.82)" xlink:href="#linear-gradient"></linearGradient><linearGradient id="linear-gradient-23" x1="512.13" y1="524.66" x2="598.4" y2="524.66" gradientTransform="translate(303.97 -365.31) rotate(29.82)" xlink:href="#linear-gradient-2"></linearGradient><linearGradient id="linear-gradient-24" x1="503.09" y1="487.09" x2="470.71" y2="501.06" gradientTransform="translate(161.45 -174.36) rotate(15.31)" xlink:href="#linear-gradient-3"></linearGradient><linearGradient id="linear-gradient-25" x1="495.82" y1="497.96" x2="510.52" y2="497.96" gradientTransform="translate(161.45 -174.36) rotate(15.31)" xlink:href="#linear-gradient-2"></linearGradient><linearGradient id="linear-gradient-26" x1="490.19" y1="518.29" x2="498.52" y2="518.29" gradientTransform="translate(161.45 -174.36) rotate(15.31)" xlink:href="#linear-gradient-2"></linearGradient><linearGradient id="linear-gradient-27" x1="595.4" y1="737.88" x2="699.39" y2="737.88" gradientTransform="translate(-300.17 -46.55) rotate(-5.56)" xlink:href="#linear-gradient"></linearGradient><linearGradient id="linear-gradient-28" x1="612.34" y1="728.23" x2="718.73" y2="728.23" gradientTransform="translate(-300.17 -46.55) rotate(-5.56)" xlink:href="#linear-gradient-2"></linearGradient><linearGradient id="linear-gradient-29" x1="561.16" y1="726.22" x2="521.23" y2="743.44" gradientTransform="translate(-305.8 191.65) rotate(-20.07)" xlink:href="#linear-gradient-3"></linearGradient><linearGradient id="linear-gradient-30" x1="552.19" y1="739.63" x2="570.33" y2="739.63" gradientTransform="translate(-305.8 191.65) rotate(-20.07)" xlink:href="#linear-gradient-2"></linearGradient><linearGradient id="linear-gradient-31" x1="545.25" y1="764.7" x2="555.53" y2="764.7" gradientTransform="translate(-305.8 191.65) rotate(-20.07)" xlink:href="#linear-gradient-2"></linearGradient><linearGradient id="linear-gradient-32" x1="394.01" y1="1045.04" x2="541.02" y2="1045.04" gradientUnits="userSpaceOnUse"><stop offset="0" stop-color="#08163c" stop-opacity="0"></stop><stop offset="1" stop-color="#08163c"></stop></linearGradient><linearGradient id="linear-gradient-33" x1="585.29" y1="1024.63" x2="1336.25" y2="1024.63" gradientUnits="userSpaceOnUse"><stop offset="0" stop-color="#08163c"></stop><stop offset="1" stop-color="#08163c" stop-opacity="0"></stop></linearGradient></defs><g class="cls-2"><g id="Layer_3" data-name="Layer 3"><polygon class="cls-3" points="1101.67 614.4 1092.57 624.78 1083.34 625.04 1074.07 616.9 1073.13 607.72 1082.24 597.34 1101.67 614.4"></polygon><path class="cls-4" d="M1137.06,598.43c-4.71,5.37-16.24,8.88-23,10.59a23.48,23.48,0,0,0-8.21,3.88l-.23.16s0,0-.06,0a6,6,0,0,1-7.42-.49l-13.85-12.16a6,6,0,0,1-1.46-7.31,11.4,11.4,0,0,1,.63-1l0,0a14.94,14.94,0,0,0,2.41-6.64c.69-6.73,2.66-19.6,7.63-25.25l0,0c.35-.47.71-.91,1.09-1.35,9.67-11,27.29-11.39,39.31-.84s13.94,28.06,4.27,39.08c-.39.44-.77.85-1.2,1.26Z"></path><path class="cls-3" d="M1071.59,620.54h12a0,0,0,0,1,0,0V621a3,3,0,0,1-3,3h-6.07a3,3,0,0,1-3-3v-.48A0,0,0,0,1,1071.59,620.54Z" transform="translate(678.08 -556.21) rotate(41.27)"></path><path class="cls-5" d="M1099,615.38a50.55,50.55,0,0,1-11-4.69,48.79,48.79,0,0,1-9.7-7.07.91.91,0,0,1,1.14-1.4c6.43,4.61,12.83,9,19.59,13.16Z"></path><path class="cls-5" d="M1096.24,618.63a50.55,50.55,0,0,1-11-4.69,49.14,49.14,0,0,1-9.7-7.06.91.91,0,0,1,1.14-1.41c6.43,4.61,12.83,9,19.59,13.16Z"></path><path class="cls-5" d="M1094.43,622.58a50.55,50.55,0,0,1-11-4.69,49.14,49.14,0,0,1-9.7-7.06.91.91,0,0,1,1.14-1.41c6.43,4.61,12.83,9,19.59,13.16Z"></path><path class="cls-6" d="M1084.1,594.42c.93-.06,1.78,2.5,2.17,3.52,3.24,8.55,14.09,15.29,15.26,14.27.64-.56-1.21-3.81-2.55-5.7-4.63-6.55-9.57-5.84-10.63-9.43-1.27-4.31,5.39-6.94,9.74-17.82,2.15-5.38,1.31-6.7,2.73-10.21,4.35-10.72,14.41-15.31,24.83-16.25-10.86-4.68-23.42-2.61-31,6.07-.38.44-.74.88-1.09,1.35l0,0c-5,5.65-6.94,18.52-7.63,25.25a14.94,14.94,0,0,1-2.41,6.64l0,0a11.4,11.4,0,0,0-.63,1,5.83,5.83,0,0,0-.28,4.76C1082.82,596.31,1083.33,594.48,1084.1,594.42Z"></path><path class="cls-7" d="M1137.06,598.43l-.07-.06c.43-.41.81-.82,1.2-1.26,9.67-11,7.76-28.52-4.27-39.08a30.76,30.76,0,0,0-14.75-7.19c7.4,4.75,13.18,12.63,9.44,21.32-2.74,6.75-14.55,3.78-19.8,12.24-4.41,7.89,3.52,16-2.3,23.57-3.11,3.36-6.46,4.07-9.85,3.37l1.44,1.27a6,6,0,0,0,7.42.49s0,0,.06,0l.23-.16A23.48,23.48,0,0,1,1114,609C1120.82,607.31,1132.35,603.8,1137.06,598.43Z"></path><path class="cls-8" d="M1082.88,606.75c6.49-1.74,11.27,7.58,18,7l-18.66-16.38-9.11,10.38.94,9.18,5.4,4.74C1077.28,615.31,1074.43,608.53,1082.88,606.75Z"></path><path class="cls-9" d="M1100.9,613.72a7.78,7.78,0,0,1-1.08,0l-9.4,8.65-8.39,1.52,1.31,1.15,9.23-.26,9.1-10.38Z"></path><path class="cls-10" d="M1083.21,624.92l-3.63-3.18a2.81,2.81,0,0,1,.13,2.41,1.47,1.47,0,0,1-1.35,1.09A3.44,3.44,0,0,0,1083.21,624.92Z"></path><path class="cls-11" d="M670,785.28q-12.15,15.39-26,31.11a726.51,726.51,0,0,1-90.15,85.7"></path><path class="cls-1" d="M1181.58,318.61C1175.71,139.18,1025.49-1.52,846.06,4.35,668.18,10.17,531.8,154.25,531.8,339.88c0,108.14,54.52,173.66,80.88,203.37,43.8,65.23-41.59,168,9,211.4,12.88,11.06,63.8,51,111.89,51C998.34,805.6,1187.46,498,1181.58,318.61Z"></path><circle class="cls-1" cx="856.69" cy="329.24" r="325.07" transform="translate(18.11 702.21) rotate(-45)"></circle><g class="cls-12"><path class="cls-13" d="M790.38,30.66s-12.58,4.69-13.94,11.4c-.7,3.41,20.16-.66,20.16-.66s10,8,8.84,15-6.52,13.44-6.52,13.44.94,7.62,3.79,9.61-4.64,7.11-3.06,12.63,7.52,17.15,7.52,17.15l11,16.34,9.69-1.71s2.23,4.42,3.34,5,8.23-1.36,9-3.1,2.86-12.91,4.7-13.75,2.08-12.88,5.63-14.24,17.88-2.62,19.32-6.26,7.5-9.62,7.5-9.62l21.81-6.49,9.42-8.12-6-12.46s6.79-7.4,6.18-11.6-10.21-6.39-10.21-6.39-5.17-5.45-7.26-7.1,1.25-9.57,1.32-12.07a4,4,0,0,0-3.25-4.11c-1.26-.12-8,3.23-9.78,2s-7-3.68-8.74-4.56-11.2-3.23-18.16-1.28-30.16,4.42-34,5.8-23,6.69-21.59,8.52S795.89,29.48,790.38,30.66Z"></path><path class="cls-13" d="M814.86,12.58c.4.82-21.62,12.42-24.42,12.67s-11.3,3-13.27,5.12-7.32,5.39-13.34,7.46-8.7,6.23-11.06,5.83-1.17-2.3-2.73-2.25-12.1,2.74-12.48.41,2.24-3,2.86-3.06,10.69-2.85,10.34-3.93-4.86-.47-5.82-1.38,7.21-8.67,13.09-10.58,7.62-.87,7.34.23,3.49-3.4,5.33-4.24S813,8.73,814.86,12.58Z"></path><path class="cls-13" d="M730,39.72c-1.87-.18-5.39,2.37-5.51,3.62s2.54,1,2.71,1.63-4.85,4.38-4.82,5.47-.06,2.81,1.81,2.6,21.54-.55,22.6-1.37,4.1-3.73,3.42-5.42-18.58.29-18.13-.19S737,40.43,730,39.72Z"></path><path class="cls-13" d="M722.1,42.17s-6.4.21-7.76,1.5-5.47,4.71-5.26,6.27,6.61,1.65,8.06,2.86,6.56-4.9,5.89-6.29S723.21,42.76,722.1,42.17Z"></path><path class="cls-13" d="M694.32,57.14c-.21-.86-11.05,6-12.64,5.41s3.72-5.9,3.22-6.67S659,70.63,658.3,73.63s5.29-.8,4.87.93S659.06,77.66,656,79s-2.84,3.84-1.22,5.82-.87,6.75-2.6,6.34-7.17.39-6.46-1.67,4.3-7,3.33-7.92-5.36-1.7-5.36-1.7-74.22,39-98.22,124.91.73,54.45.73,54.45-3.67,18-2.1,22.51,3.78,11.52,2.85,17.8-.82,18.2,2.32,27.47,4.28,18,7.2,20.5,4.43-3.56,3.86-3.82-8.46-15.35-8.69-22.44,2.23-10,3.13-8.34,2.59,18.38,7.9,24.45,6.65,12.28,6,16.85,2.64,11.27,11.71,19.21,19.15,12.44,20.77,10.11,4.68-4.69,8,.59,5.62,6.92,10.21,8.47,11.19,3.33,14.47,8,3.41,9,7.45,10.83,6.64,3.19,8.15,6,8.26.87,10.64,4.2,5.84,4.92,5.48,2.37-.28-8.51,2.27-8.59,3,4.45,4.77,6.94,6.44,5.76,6.35,11.72-.25,9.67-2.46,11.44-5.15,7.56-4.63,14.92,5.33,6.65,5.4,8.63-5.82,4.45-2.78,10.6S684.56,487,689,492.84s20.41,24.89,22.47,27.1,28.46,10.43,28.81,12.4,9.85,32.06,14.1,40.44,12.32,20.61,12.5,26.28,5.38,8.06,11.22,13,10.85,10.43,11.2,12.41,11.69,10.12,20.4,15.8,20.94,6.42,21.74,5-12.09-5-15.64-9.43-1.15-9-5.43-9.76-5.78-2.93-4.72-5.24.1-5.68,1.19-7.14-9.45-2.25-6.69-4.61,3.51-5.79,8.6-6.24,8.39-4,3.29-12.32c5.71,1,9.93-.33,11.27-2.93a186.9,186.9,0,0,1,10.27-15.95c1.91-2.34,2-7.45.77-11.11s6.48-10.15,12.95-12.06,13.58-1.58,17-11.07,3.54-22,4.78-27.7,3.39-.4,6.34-5.6,11.83-11.75,12.13-20-.65-11.33-3.79-11.8-8,0-13.5-4.39-13-7.24-18.07-5.65-12.64,4.39-13.07-.14-5.89-6.34-9.59-6.51-11.49-4.16-15.72-3.17-7.43,7.34-9.46,6,9-11.09,8.36-13.62-7.16-1.76-6.74-6.32-7.46-11.11-17.48-13.34-10.13,2.89-15.66-1.47S757.94,412.2,756,413.4s-4.54.15-4.54.15,3.56-4.09.66-6S745,406.1,745,406.1s3.29-3.52.15-4-10,5.44-13.49,4.41-11.38-.76-14-1.53-4.22-7.53-9.56-5.65-5.78,5.59-5.09,9.26-3,4.07-4.82.15,6.54-8.16,3.29-12-7.54,3.94-11,3.76-7.91,1.12-8.89,6-5.33,10.68-6.52,9-6.77-7.16-12.62-3.84-7,3.92-10.24-.24-6.39-4.33-5.78-11.74,1.55-13.39-2.85-17.79-18.48-.54-18.48-.54-2.07-11.29.12-13.63,2.65-6.05,2.75-11.45-12.37-5-13.71-2.39,2.36,11.28-3,12-14.64,3.89-17.27-7.1-2-36.57-1.34-40.85,3.73-7.51,7.07-9.6,14.59,3.21,14.59,3.21,2.27-8.59,6.25-8.44,8.93,3.68,12.06,3.87,10.66-4.05,10.85,1.91.13,12.49,3.4,16.93,8.22,8.25,8.28,1.43-8.72-23.57-5.25-30.21,23-18.36,25.07-23.54-2.66-11.84-1.06-15,3.54,3.86,6.2-1.62,10.77-18,18.45-17.65,3.61-11.19,8.1-12.76,23.13-13.53,24-12.14-7.2,5.63-5.38,9.26,6.25.08,10.71-2.62,20.78-7.21,21-10.06-2.24-7.6-3.38-7.84-11.07,8.88-11.07,8.88-9.93-8.19-8.07-12.23,5.18-6.7,4-7.8-19.81,2.07-31.9,14.39c-1.42.05-1.49-2.22-1.49-2.22s18.16-17.64,26.37-18.47,9,5.1,11.87,6.71,5.34-1.6,1.21-6.29c6.52-.21,12.25,1.3,15-.77s9.12-7.69,11.14-6.62-13.59,18.62-12.09,21.13,17.88-.3,17.66,1.41-1.82,5.17,1,4.8,6.34-5.89,6.94-5.06,1.9,5.9,4.68,4.11,2.85-8.33,1.87-12.28-12.06-3.86-12.06-3.86-3.49-2.73-.8-7.07,5.31-11.54,2.91-15.44-13-7.8-18.27-11.33-7.59-6.56-6.27-9.45-2.55-17.24-6.55-18-8.89,14.78-14.66,12.13S728.25,130,731,127.38s-6-2.35-7.56-5.43-9.48-3.1-11.19-3.32-7.18-2.33-9.83,3.44-1.62,11.13-6.07,14.12-1.8,5.73-.61,7.4.57,8.5-5.79,13.82-8.75,1.71-9.12,7.68,3.69,8.69-2.7,13.16-9.07.29-8.72-6.25S677,161.53,673.29,160s-9.1-.28-13.48-3.82S653.05,149,647.4,150c-.19-5.67-3.06-6.72-1.81-11.87s27.54-26.46,31.76-27.45,6.12,4.63,6.12,4.63c2.8-1.23,7.18-6.2,8.36-4.82s7,4.32,8.28,1.43-5.38-8.34-5.71-9.75,9.68-8,12.78-8.65,4.31-7.24,4.31-7.24L716,84.71s-1.67-7.61.27-9.1,10.28,1.65,12.5.16,5.08,7.79,6.3,10.3-6.53,8.74-6.53,8.74c-1,3.44-10.11,3.45-12.89,5.25s-6.35,5.6-5.73,7.28,13-2.41,14.45-1,2,8.46,5.75,10.61,15.74,3.74,16.84,2.57-5.32-6.36-2.81-7.58,8.14,5.7,10.58,2.21,2.79-10.31.48-11.37-4.76-6.66-4.76-6.66,7.14,1.18,8.08,4,6-.48,6-.48,10.07-4.59,9.13-7.4-6.13-5.19-9.3-6.51-8.89-2.55-8.11-4.84,6.5-1.07,5.83-4.17-9.2-11.91-9.2-11.91c-3.7-.45-5.71-1-6.08-3.78s-4.75-6.09-11.84-5.86-13,9.8-14.48,8.71,5.73-7,2.33-6.89-18.55,14.81-18.55,14.81c.46,5.09,4.5,7.23.9,9.91s-6.77,1.35-6.87-1.48,0-8.52,1.63-11.13,17-10.78,16.33-13-7.41-.61-12.37,4.09-4.62-2.4-9.86,2.32-3.72,7.79-2.59,7.75-6.41,3.62-5.72,7.29-2.48,11.15-7.63,9.9-10.61,5.46-13.56,2.15.3-8.25,2.88-7.48,9.28-2.86,9.72-6.57S694.94,59.79,694.32,57.14Z"></path><path class="cls-13" d="M681.41,76.24l-6,5.3c-.66.58-1.37,1.48-.92,2.23a7.25,7.25,0,0,0,5.6-1.21,4.26,4.26,0,0,0,1.25-5.26"></path><path class="cls-13" d="M691.62,114.1c-2.45,1.49-4.85,3.07-7.18,4.72-.65.46-1.38,1.13-1.2,1.9a1.71,1.71,0,0,0,.54.81,5.49,5.49,0,0,0,7,.32,10.64,10.64,0,0,0,2.45-3.28,3.81,3.81,0,0,0,.7-2.38c-.13-.83-1.15-1.53-1.84-1"></path><path class="cls-13" d="M637.88,344.79c-1.52,2.27-3.17,5.61-1,6.25s6.74-6.2,8.43-5.53,3.49,4.19,9,4.49,13.2,1.24,11.89,5.11.66,5.48,7.8,4.53,7.72-5.28,7.72-5.28-12.59-4.85-15.54-7.15-15.29-6.91-15.29-6.91S639,343.08,637.88,344.79Z"></path><path class="cls-13" d="M664.17,366.18c-2.09,2-.31,5,3.52,5.15s7.82-2.17,6.83-3.34S664.17,366.18,664.17,366.18Z"></path><path class="cls-13" d="M681.84,365.12c-1.13,1.82.61,4.05,2.53,4.22s7.3-3.58,9.29-1.26,7.39-.72,9-1.73,9.36.89,9-2-8.35-6.66-13.6-6.49-10.06-.39-10.5.82,4.67,3.92,2.54,4.7S683.2,362.92,681.84,365.12Z"></path><path class="cls-13" d="M716.73,364.22c-1.62,1.22-3.44,4.42-.55,5s11-.84,10.42-3.21S719.07,362.47,716.73,364.22Z"></path><path class="cls-13" d="M916.77,88.29c-5-2.88-10.6,1.87-10.15,4.13s5,2.12,7.36,4-6,3.62-2.11,5,10.44,5,15,4.08,18.93-3.29,20.28-8.66-8.71-10-8.71-10S920.43,84,916.77,88.29Z"></path><path class="cls-13" d="M999.6,129.76c-3,.1-8.58,4.36-8.58,4.36l-.93,4.66,3.11,3.72s-2.43.62,2,3.47,4.7,2,6.38,3.33,3.07,2.35,3.07,2.35c2.79,2.09,1-2.48,2.79,2.09l1.79,4.57-3.43,3.66,2,3.2-1.23,4.12,1.69,1.85s2.4-1.71,2.29,3.2,1.81,5.39,1.81,5.39l4.6-1,3.21-1.74,2.4-1.44s.5-1.38,3.78-1.21a22.5,22.5,0,0,0,4.89-.16s2.14-1.44,1.8-3.33-1.56-6.21-1.56-6.21l-2.9-5.36-5.23-1.46a10.82,10.82,0,0,1-3.4-4.25l-2.1-5.65-5.45-.09-4.47-3.67-1.52-4.58,1-4.12-5-3.65S1002.86,129.65,999.6,129.76Z"></path><path class="cls-13" d="M988.53,149.46c-1.45.25-2.9,3.09-2.9,3.09l2,4L983,155.9l.42,4.62,3.64,2.88s-5-2.29-2.08,3.06,4.54,5.57,4.54,5.57c4.09.14,5.94-1.55,5.94-1.55l2.08-3.07,2.62-3.08-.12-3.81L998.58,157l1.51-3.86-4.45-2.86S990.42,149.12,988.53,149.46Z"></path><path class="cls-13" d="M1185,385.17c-5.63,2.9-8.59,4.09-8.59,4.09s-6.22-31.94-5.42-40.95-2.81-27.42-3.84-33.92-5.13-15.36-3.83-17.31,3.6,1.79,5.77,9.89,9.38,28.57,7.76,37.33-1.76,21,0,24,8.08,5.73,9.11,3.79,11.61-86.45,10.08-99.74-10.76-95.8-20.46-117.54-87.27-78.31-103.65-71c0,0-9.64-11.67-20.08-14.59s-15.3-1.41-16.51-4.91-8.08-5.73-12.09-3.42-7.77,4.07-5.69,9.45,9.26,16.58,6.73,22.38-8.43,8.72-6.57,15.74,9.7,21.75,15.19,22.93,6.68-4,8.81-5.46,5,2.83,8.94,6.79,6.77,7.13,5.2,9.09-4.59,1.51-4.67-.94-.76-6.78-3.23-7.25-4.53,2.87-4.53,2.87l-2,5.25,4,4.77,4.55,5.84.14,4.35-4.62.43s-4.79,3.42-5,6.43a23.84,23.84,0,0,1-2,6.87s-1.58,1.41-3.44,3.11-1.24,3.58-1.74,5-.22,1.64-2.35,3.07-2.7.63-4.64-.39-1.72-2.4-3-.18a3.57,3.57,0,0,0,.41,4.08l-1.88.87s-4.4-1.21-5.7.46-3.48,2-.68,4.11a16.09,16.09,0,0,0,3.61,2.33l5.52,2.27s4,4.78,5.86,4.17,1.44,2.41,1.87,7.29,3.3,9.16.31,9.53-13.63-.37-13.63-.37l-6.32-1.7-6.8.22-3.74,2.3s-4.63-.12-1.26,3a30.51,30.51,0,0,1,4.23,4.49l1,5.69a5.76,5.76,0,0,1-.13,4.36,18.19,18.19,0,0,0-1.22,4.4s-2.38,2.25-.95,4.38,3.68,4.24,2.95,6.72,3.69,4.51,3.69,4.51,7.8-3,9.55.5,4.55,6.12,5.6,4.72,2.29-4.7,5.52-5.9,8.22,1.37,10.27-2.51,6.37-5.12,5.73-8.09-1.61-7.57-1.61-7.57,3.06-6.37,6-6.47,4.77-4.24,3-8.27,3.38-5,3.38-5,8.57,3.81,10.09.49a19.43,19.43,0,0,1,2.84-4.73l2.93-2,3.08,2.62s6.57,9.32,9.89,10.85a71.15,71.15,0,0,1,6.64,3.05c3.33,1.8,2.24,1.83,5.57,3.9s2.73.19,5.3,3.64-.28,8.18-.28,8.18l-2.69.91-3.26.38-2.12,1.7s-.18,3,1.47,3.49,0,.55,4.17,2.32,2.23,1.83,4.14,1.77-.17-5.17-.21-6.26.5-1.38,1.57-2.23,1.34-.59,1.82-2.51.75-1.93.71-3.29a14.66,14.66,0,0,0-.65-3.25s-2.55-2.91-1.19-3,3.65,3.15,3.87,1.78a14.51,14.51,0,0,0-.4-4.07L1106,226s-8-2.46-10.57-6.73-8.24-10.63-11-11.35-.72-5.43.62-6,7.09.32,8,3.28,6.55,8.5,11.83,11.87,8.39,6.54,8.46,8.71.45,5.44,2.68,7,6.81,8.49,6.89,10.94,4.07,7.76,6,8.25,5.25-6.17,4.34-9.13-6.47-6.06-6-8.8,1.45-5.49,3.35-5.83,3.2,6.44,5.16,8,.71,4.88,2.4,6.73,3,8.89,5.23,9.9,5.62-2.9,7.84-1.89,4,4.23,5,2.56,1.77-4.14,3.17-3.1,2.38,6.19,2.49,9.46,1.72,2.66,1.21,11.94-2.46,8.25-6.28,8.1-2.7,8.81-8,4.63-9-10.06-13.45-11.55-10.35.07-10.2,4.42,1.12,9.5-1.39,7.67-11.71-.16-12.15-5.32-7-5.76-10.3-6.74-10.47-3.47-10.29-6.48,4.15-6.12,2.44-8.52,1.71-6.05-3-7.8-10.5,3.61-15.71,2.69-24.7,2.44-24.7,2.44-6.29,7.56-11.2,7.45-11.72-.43-12.56-.95-5.12,1.53-6.64,5.12-7.49,4.06-9.51,9,.69,12.78-1.12,15.83-11,12.35-14.05,11.63-3.54,8.29-6,9.46-4.42,14.58-8.69,17.44-4.53,11.32-2.53,14,5.79,10.71,2,18.73-7.21,12.77-4.63,16.77,4.76,12.1,9.78,15.75,7.62,8.19,7.78,13.09,12.29,9.13,17.36,14.41,14.41-.74,17.93-1.4,14.27,3.34,16.92.81,17.12-9.28,20.71-8,4.17,11,4.17,11,10.74-4.71,12.52-.41-4.32,17.84-6.65,21.73,5,9.64,5.71,16.16,0,25.33-4.75,29.84-18.61,22.13-19.24,27.87,1,14.4-5.24,23-9.21,26.45-13.23,28.49-7.6,9.23-7,10.85,27.31-6.07,36.27-15.35,27.87-22.43,30.14-27.95S1114,519.59,1114,519.59s20.67-17.56,24-32.38,25.09-48.76,34.69-63.51S1190.62,382.26,1185,385.17ZM1076.67,129.41l4.63.12,2.86,4.27-5.47-.64-.78,1.12,4.84,6.37,1.55,5.67-2.1,2.52a16.75,16.75,0,0,0-3.54-.15c-2.45.08-2.16.61-4,3.4a5.77,5.77,0,0,1-4.26,2.86l-3.62-2.33-4.6,1a6.1,6.1,0,0,1-3.77,1.22c-1.91-.21-3.35-2.62-3.35-2.62s.21-1.64,2.64-2.54,1.36,0,3-.64,1.55-2.77,1.78-3.87l3.82.15a9.69,9.69,0,0,0,2.62-3.08c1-1.94.19-2.46.19-2.46a41.48,41.48,0,0,0-2.35-5.37c-1.75-3.49-2.83-3.18-2.83-3.18s-1.39-1-.12-3.81,1.3-1.67,2-4.69-1.2-3.5-1.2-3.5l-3.32-1.53a25,25,0,0,1-3.6-1.79c-2.22-1.29-4.79-4.74-4.79-4.74a24.5,24.5,0,0,1-2.88-4.81c-1.17-2.69.42-3.83.42-3.83l.66-4.92-3.77-7,1.83-2.24,6.39,3.6.53,7.88,1.28,6,4.76,3.93,5.1,6.1s3.07,2.08,5.3,3.64,9.69-3.31,9.69-3.31l2.34,4.82-4.57,1.79-5.35,3.17Zm84.55,95.29c-.2,2.19-1.57,2-4.26,2.86s-2.55-2.91-2.55-2.91l-3.65-3.42-4.12-1-3.37,5s-1.87,1.15-8.07-5.19-1.92-8.65-1.92-8.65l.9-5.75a75.22,75.22,0,0,0-1.07-7.86c-.64-2.7.19-2.46,1.24-3.58a6.38,6.38,0,0,1,3,.17,1.69,1.69,0,0,1,1.16,2.14l1.77,4,.76,6.51,3,1.54,1.76-4.69,3.31,1.52,3.13,4,5.32,4.45,3.46,5.88A26.3,26.3,0,0,1,1161.22,224.7Z"></path></g><path class="cls-14" d="M691.54,608.65c13.9-15,44.56-3.08,86.57,3.4,88.78,13.67,180.26-6.16,182.62-23.57,3-22.28-142.52-22-236.16-106.65C622.7,389.75,616.43,228.08,630.11,96.62c-61,60.51-98.31,146.2-98.31,243.26,0,108.14,54.52,173.66,80.88,203.37,43.8,65.23-41.59,168,9,211.4,12.88,11.06,63.8,51,111.89,51,76.43,0,146.55-25.64,207.5-66.42-24.25,3.66-181.36,25.53-235.59-56.11C691.35,661.74,677.71,623.56,691.54,608.65Z"></path><ellipse class="cls-1" cx="697.5" cy="752.11" rx="39.71" ry="93.31" transform="translate(-264.18 1109) rotate(-67.52)"></ellipse><path class="cls-15" d="M526.5,895.11l32.37,38.09,40,7.62-45.08-38.73Z"></path><path d="M550.36,890.37a9.48,9.48,0,0,1,2,7.36,91.65,91.65,0,0,1-5.06,15.74c-1.25,2.91-2.64,6.47-7,6.6-.53,0-1.07,1.24-1.54,1.95-3.72,5.63-8.88,3.92-14,8.35a20.08,20.08,0,0,0-1.94,2.63c-1.32,1.65-2.7,3.26-4.51,5.44.08.42.32,1.69.76,4.07l-6.89-6.46c6.93-7.41,14.26-6.48,19-15.78l-1.35-.9c-3,3.2-5.1-2.85-8.77-.45-5.29,3.47-10.45,7.16-15.7,10.78l-3.88-3.64c4.84-3.89,9.52-7.56,14.11-11.35s4.83,1.55,8.74-2.74c3.18-3.48,2.45-6.94,2.11-10.57-.55-6,1.38-10,7.29-12.34,4-1.59,7.37-3.48,11.89-1.82,3,1.11,1.48-2.22,2.05-4.4.43-1.63,1.7-3.73,3.09-4.22a6.29,6.29,0,0,1,5.25,1.11c2.43,2.07-.31,9.5-3.52,10.22ZM530,905.51l5.86-11.57C530.28,894.37,528.3,898.16,530,905.51ZM541.62,915c3.57-1.71,5.34-6.33,4.32-11Z"></path><path d="M561.07,897.88c.62-2.81-3-8.25,4.25-8.12,2.66,0,4.64,1.06,4.94,3.39a8.73,8.73,0,0,1-1.51,6c-1.21,1.51-3.64,2.05-5.55,3,1,2.54,2.47,5.1,2.8,7.8s-.58,5.44-1,8.52l-4.57-1.71c-2.2,8.26-6.7,16-11.13,23.13a22.33,22.33,0,0,1-3.41,3.75c-2.7,2.69-6.09,4.95-8,8.11-1.47,2.45-1.12,6-1.53,8.76l-5.6-5.24c2.26-3.45,4.16-6.74,6.47-9.72,1.62-2.1,3.93-3.65,5.67-5.69.85-1,1.07-2.51,1.58-3.8-1.17.07-2.52-.2-3.49.28a48.15,48.15,0,0,0-7.21,4.3c-4.06,3-8,6.23-5.14,12.37L522.17,947c4.81-4.64,9.65-9,14.18-13.75a77.25,77.25,0,0,0,7.85-9.72c1.24-1.8,2.64-1,.22-3.28a.73.73,0,0,1,0-.7c3.8-4.07,1.33-8.61.83-12.92-.28-2.42.7-3.4,2.62-4.09Z"></path><path d="M551.61,968.18l8.18,7.67c-2-7.88,3.89-10.5,8.6-13.39,7.81-4.78,15.14-9.94,20.26-17.74.8-1.23,1.59-3,3.75-1.54.24.15,2.39-1.59,2.26-2-1.31-4.32,3.53-20.12,3-23.8,0-.29.29-2.08.61-2.24,3.41-1.69,3.77-4.28,2.51-7.54-.22-.56.22-1.38.57-3.17-2.88.37-6,0-7.94,1.3-1.22.78-.76,4.13-.32,6.54-.44.37.2.6-.34.64-6.86.56-8.39,5.86-10,11.12-.13.47-1.43,9.72-1.74,10.08-6.33,7.47-12.64,15-19,22.38C558.67,960.39,555.16,964.2,551.61,968.18Z"></path><path d="M542.73,959,540,956.62a86.62,86.62,0,0,0,17.21-20.28l-.87-.66c-4.93,5.26-10,10.39-14.73,15.83-2.46,2.84-3.57,3.32-5.26,1.52,2.59-3.32,5.07-6.52,7.59-9.69,1.52-1.93,3.2-3.75,4.63-5.74,1.64-2.27,4.67-3.85,3.75-7.48-.12-.47.63-1.34,1.18-1.76,3.85-3,6.87-8.46,9.62-12.5a16.73,16.73,0,0,0,2.2-5.38c.43-1.75.19-3.66.51-5.45.62-3.38,3.16-2.24,4.83-2,2-2.24.12-4,1.3-6.43,1.08-2.18,3.32-3.5,5.89-1.79s1.94,4.07,1.25,6.34a12.72,12.72,0,0,1-1.73,2.84c.17.32.21,2.79.39,3,4.7,4.57,1.3,8.54-.89,12.6-.23.44-.46,1.14-.8,1.21-4.76,1-5.64,11.11-8.2,13.62s-5.35,4.42-8,6.64a19.71,19.71,0,0,0-1.87,1.79C552.9,948.12,547.89,953.47,542.73,959Z"></path><path d="M558.07,959.8c-3-2.12-2.75-4.33.81-8.23,4.56-5,8.9-10.22,13.33-15.35l-.94-1c-3.36,2.54-6.88,4.91-10,7.67-2.87,2.51-5.25,5.59-8.1,8.13-.82.73-3.06,1.09-3.73.53-1.84-1.55.22-2.22,1.22-3.13s1.5-1.79,2.29-2.65c4-4.42,8.18-8.75,12.06-13.29,1.16-1.36,2.32-7.7,2.55-9.54.08-.7-.28-1.59,0-2.1,3.32-5.35,6.58-10.76,10.26-15.86.82-1.14,3.23-1.6,4.88-1.55,2,0,3-.26,3.15-2.31,0-.12,0-.25,0-.36.83-3.86,3-6.16,5.29-5.72s3.32,3.4,2.49,7.33c-1.11,5.25-1.84,10.6-3.29,15.75-.78,2.79-3.51,16.11-6,17.23-1.77.78-3.48,1.23-5,2.69-5,5-10.25,9.7-15.26,14.66C562,954.8,560.23,957.22,558.07,959.8Z"></path><g class="cls-16"><path class="cls-17" d="M547.32,913.47a91.65,91.65,0,0,0,5.06-15.74,9.48,9.48,0,0,0-2-7.36l2.16-.42c3.21-.72,6-8.15,3.52-10.22a5.08,5.08,0,0,0-1.28-.75c1,1.94.91,3.13.63,3.85-.48,1.19-1.52,1.38-1.94,2.85-.36,1.23.26,1.5-.13,2.44-.67,1.61-2.79,1.62-2.85,2.79,0,.26-.6,1.41-.49,2.06.14.84.51,1.41.81,2.47a11.37,11.37,0,0,1,.37,2.26c.29,3.38-2.26,9.5-2.86,10.91a39.23,39.23,0,0,1-3.82,7.37,34.66,34.66,0,0,1-3.13,4C544.89,919.31,546.18,916.14,547.32,913.47Z"></path><path class="cls-18" d="M542.68,906.6a12.41,12.41,0,0,0-1.38,2.27,10.69,10.69,0,0,0-.35,3,3.71,3.71,0,0,0,.14,1.52,3.2,3.2,0,0,0,.74,1.18l3.23-8.23c0-1.68-.23-2-.42-2.06S544.21,904.33,542.68,906.6Z"></path><path class="cls-19" d="M518.37,938.44c1.81-2.18,3.19-3.79,4.51-5.44a20.08,20.08,0,0,1,1.94-2.63c5.09-4.43,10.25-2.72,14-8.35a15.47,15.47,0,0,1,1.07-1.64c-9.66,8.11-18.22,8.57-23.74,19.3l3,2.83C518.69,940.13,518.45,938.86,518.37,938.44Z"></path><path class="cls-20" d="M535.94,894l.49-.81a7.73,7.73,0,0,0-5.33.73c-2.87,1.61-3.54,4.73-3.79,5.88a10.6,10.6,0,0,0,.22,5.22,1.34,1.34,0,0,0,1.37,1.21,1.29,1.29,0,0,0,1-.85c-1-3.87-.38-7.82,1.13-9.49A6.59,6.59,0,0,1,535.94,894Z"></path><path class="cls-21" d="M565,918.52c.41-3.08,1.3-5.87,1-8.52s-1.77-5.16-2.73-7.65a16.28,16.28,0,0,1-1.87,14.82Z"></path><path class="cls-22" d="M563.32,902.14c1.89-.93,4.25-1.48,5.43-3a8.73,8.73,0,0,0,1.51-6,3.4,3.4,0,0,0-2-2.75,10.2,10.2,0,0,1,.08,5.26A10.81,10.81,0,0,1,563.32,902.14Z"></path><path class="cls-23" d="M597.57,917.82c0-.16,0-.31,0-.47s.28-2.08.6-2.24c3.41-1.69,3.77-4.28,2.51-7.54-.22-.56.22-1.38.58-3.17-.61.08-1.23.12-1.84.16C597.9,909.26,594.21,914.26,597.57,917.82Z"></path><path class="cls-24" d="M573.07,962.46c7.81-4.78,15.14-9.94,20.25-17.74.8-1.23,1.6-3,3.76-1.54.23.15,2.38-1.59,2.25-2-.54-1.77,1.84-15.79,2.06-17.31-.44,1.51-3.15,15.45-3.64,17.11-4.28-1.28-8.65-5.38-9.84,1.73.09,2.82,4.19-1.55,4.28,1.27-7.05,11.92-25.48,17.82-30.28,29.5l2.56,2.4C562.43,968,568.35,965.35,573.07,962.46Z"></path><path class="cls-25" d="M577.55,906.92c-.18-.18.83-2.72.63-3a13.25,13.25,0,0,0,1.35-3c.38-2.35.54-4.84-2.08-6.13a3.79,3.79,0,0,0-3.27-.21,5,5,0,0,1,4.61,2.49,4.66,4.66,0,0,1-.07,4.62c-.55.76-1.26,1-1.38,1.85s-.8,2.91-.79,3.35c0,3.12.82,4.57.78,6.24-.07,2.34-1.68,2.74-3.77,6.64-1.23,2.28-2.5,10-3.21,11.26,1.1-2.15,2.35-8.79,3.07-9.14a9,9,0,0,1,2.44-1.11c.34-.07.57-.77.8-1.21C578.85,915.46,582.25,911.49,577.55,906.92Z"></path><path class="cls-26" d="M563.9,952.72c5-5,10.24-9.71,15.26-14.66,1.48-1.46,3.19-1.91,5-2.69,2.53-1.12,5.26-14.44,6-17.23,1.45-5.15,2.17-10.5,3.28-15.75.83-3.93-.11-6.87-2.49-7.33a3.27,3.27,0,0,0-2.8.88,8.29,8.29,0,0,1,2.8,2.49c4.66,6.78-2.32,20.7-7.43,21.56a12.19,12.19,0,0,0-5.18,2.1c-.39.25-1,.63-.92.91.2.76,5-.31,5.41.76.08.22-1.62,9.56-2.86,10.54h0c-6.82,9.38-16.64,15.94-23,24.71a7.67,7.67,0,0,0,.94.79C560.07,957.22,561.81,954.8,563.9,952.72Z"></path></g><path class="cls-15" d="M598.87,940.82a71.8,71.8,0,0,1-40.47,49L516,986.05l42.85-52.85Z"></path><path class="cls-27" d="M551.7,975.88C542,948.44,569.61,943.36,594.54,940l-35.67-6.79L516,986.05l42.38,3.81c.68-.31,1.46-.68,2.28-1.09A26.21,26.21,0,0,1,551.7,975.88Z"></path><path class="cls-28" d="M526.5,895.11A88,88,0,0,0,507,903.2c-18.45,10.44-21.16,30.71-26.18,39.31,14.28,16.35,20.95,27.19,35.23,43.54a99.56,99.56,0,0,0,33.81-33.33,95.72,95.72,0,0,0,9-19.52Z"></path><path class="cls-29" d="M543,928.69c-15.73-10.48-26.21-22.71-43.69-12.23a41.07,41.07,0,0,0-10.83,8c-3.35,7.13-5.24,14-7.65,18.09,14.28,16.35,20.95,27.19,35.23,43.54a99.56,99.56,0,0,0,33.81-33.33,95.72,95.72,0,0,0,9-19.52l-.11-.14A26.23,26.23,0,0,1,543,928.69Z"></path><path class="cls-30" d="M558.87,933.2c-.28.36-.57.71-.86,1.06,10.45,3.18,25.2,3.52,26.89,13.66,2.62,19.63-14.36,35.34-34.07,41.26l7.57.68a71.8,71.8,0,0,0,40.47-49Z"></path><path class="cls-31" d="M526.5,895.11l32.37,38.09L597.75,941"></path><path class="cls-32" d="M712.68,715.42a196.87,196.87,0,0,0-45.81-13c30.18,18.83,43.73,58.26,43.2,95.74,36.38,9.41,66.92,5.91,73.65-10.34C792.1,767.53,760.3,735.13,712.68,715.42Z"></path><path class="cls-33" d="M1181.58,318.61C1175.71,139.18,1025.49-1.52,846.06,4.35,778.54,6.56,717,28.71,666.64,65.47c56.5-14.28,113.82-21,166.43,3.38,159,75.14,194,265.64,169.53,433.42-13,86.57-39.39,172.38-80.52,249C1083.25,654.82,1185.94,451.55,1181.58,318.61Z"></path><path class="cls-11" d="M619.34,707.34c-1.56,20.78-14.07,57.84-26.19,88.74a277.55,277.55,0,0,1-66.65,99"></path><path class="cls-11" d="M783.72,787.8a681.89,681.89,0,0,1-184.85,153"></path><path class="cls-11" d="M712.68,715.42A367.71,367.71,0,0,1,558.87,933.2"></path><ellipse class="cls-11" cx="697.5" cy="752.11" rx="39.71" ry="93.31" transform="translate(-264.18 1109) rotate(-67.52)"></ellipse><polygon class="cls-3" points="526.93 424 520.63 447.02 506.5 454.41 485.91 448.78 477.52 435.22 483.82 412.19 526.93 424"></polygon><path class="cls-4" d="M569.86,372.4c-3.26,11.91-18.53,26.1-27.81,33.89a40.45,40.45,0,0,0-9.82,12.25c-.07.14-.15.28-.23.42s-.06.07-.07.1A10.42,10.42,0,0,1,520,423.92l-30.72-8.41a10.46,10.46,0,0,1-7.81-10.26,18.79,18.79,0,0,1,.21-2.08l0-.08A25.68,25.68,0,0,0,480.44,391c-4-11-10.69-32.48-7.25-45l.07,0c.19-1,.41-1.94.68-2.92,6.7-24.45,33.8-38.34,60.46-31s42.91,33.06,36.21,57.51c-.26,1-.56,1.91-.9,2.86Z"></path><path class="cls-3" d="M485.07,451.48h20.7a0,0,0,0,1,0,0V454a3.4,3.4,0,0,1-3.4,3.4h-13.9a3.4,3.4,0,0,1-3.4-3.4v-2.54a0,0,0,0,1,0,0Z" transform="translate(137.6 -114.7) rotate(15.31)"></path><path class="cls-5" d="M523.55,427.53a107.61,107.61,0,0,1-20.62.32,105.62,105.62,0,0,1-20.35-3.54.91.91,0,0,1,.42-1.77,265.83,265.83,0,0,0,40.55,5Z"></path><path class="cls-5" d="M521.69,434.69a107.61,107.61,0,0,1-20.62.32,105.62,105.62,0,0,1-20.35-3.54.91.91,0,0,1,.42-1.77,267.09,267.09,0,0,0,40.55,5Z"></path><path class="cls-5" d="M521.87,442.2a107.63,107.63,0,0,1-20.62.32A105.49,105.49,0,0,1,480.9,439a.91.91,0,0,1,.42-1.77,265.83,265.83,0,0,0,40.55,5Z"></path><path class="cls-34" d="M484.5,406.25c1.4-.81,4.66,2.53,6,3.82,11.5,10.84,33.47,13.11,34.51,10.64.58-1.35-4.77-5-8.28-6.94-12.14-6.67-19.29-1.83-23.65-6.61-5.24-5.74,3.13-14.86,1.66-35.08-.73-10-3-11.39-3.49-17.93-1.35-19.95,10.82-34.7,26.3-44-20.42.95-38.37,13.65-43.65,32.92-.27,1-.49,1.93-.68,2.92l-.07,0c-3.44,12.55,3.24,34,7.25,45a25.68,25.68,0,0,1,1.28,12.13l0,.08a18.79,18.79,0,0,0-.21,2.08,10.06,10.06,0,0,0,3.17,7.6C483.94,410.14,483.34,406.91,484.5,406.25Z"></path><path class="cls-35" d="M569.86,372.4l-.15,0c.34-.95.64-1.88.9-2.86,6.7-24.45-9.51-50.2-36.21-57.51A53.14,53.14,0,0,0,506,312c15.11,1.79,30.05,9.66,30.81,26,.85,12.57-19.75,16.88-21.51,34-.89,15.61,17.53,22.13,14.25,38.39-2.28,7.56-7,11.21-12.75,12.69l3.19.88a10.42,10.42,0,0,0,11.91-4.86s.06-.06.07-.1l.23-.42a40.45,40.45,0,0,1,9.82-12.25C551.33,398.5,566.6,384.31,569.86,372.4Z"></path><path class="cls-36" d="M491.93,426.33c8.77-7.62,23.26,3.25,33.28-2.81l-41.39-11.33-6.3,23,8.39,13.56,12,3.28C489.71,443.88,480.14,435.49,491.93,426.33Z"></path><path class="cls-37" d="M525.21,423.52a11.22,11.22,0,0,1-1.67.82l-8.07,20.56-11.89,8.71,2.92.8L520.63,447l6.3-23Z"></path><path class="cls-38" d="M506.19,454.32l-8-2.2c1.39,1.29,2.25,2.83,2,3.65a2.54,2.54,0,0,1-1.28,2.71A5.94,5.94,0,0,0,506.19,454.32Z"></path><polygon class="cls-3" points="476.38 670.51 486.48 698.16 477.55 715.69 452.83 724.72 434.7 717.08 424.6 689.43 476.38 670.51"></polygon><path class="cls-4" d="M482.69,588c5.23,14.29,0,39.46-3.76,53.93a49.68,49.68,0,0,0-1.12,19.32l.06.59s0,.11,0,.15a12.84,12.84,0,0,1-8.51,13.39l-36.89,13.48a12.92,12.92,0,0,1-15.18-4.73,21.4,21.4,0,0,1-1.27-2.25l0-.09A31.77,31.77,0,0,0,406,670.49c-11.89-8.18-33.94-25-39.44-40.09l.09,0c-.52-1.14-1-2.25-1.41-3.42-10.73-29.36,6.6-62.69,38.62-74.39s66.75,2.61,77.48,32c.43,1.17.79,2.32,1.13,3.52Z"></path><path class="cls-3" d="M453.68,720h25.52a0,0,0,0,1,0,0v3.93a3.4,3.4,0,0,1-3.4,3.4H457.08a3.4,3.4,0,0,1-3.4-3.4V720A0,0,0,0,1,453.68,720Z" transform="translate(-220.02 204.03) rotate(-20.07)"></path><path class="cls-5" d="M475.5,676.48a143.79,143.79,0,0,1-31.85,20.86c-3.83,1.82-7.73,3.52-11.73,5a.91.91,0,0,1-.67-1.68,289.08,289.08,0,0,0,44.25-24.14Z"></path><path class="cls-5" d="M478.75,685a144.21,144.21,0,0,1-31.85,20.85c-3.84,1.83-7.73,3.53-11.73,5a.91.91,0,0,1-.68-1.69A289.59,289.59,0,0,0,478.75,685Z"></path><path class="cls-5" d="M484.29,692.43a143.9,143.9,0,0,1-31.85,20.86c-3.84,1.82-7.73,3.53-11.73,5a.91.91,0,0,1-.68-1.68,289.65,289.65,0,0,0,44.26-24.14Z"></path><path class="cls-39" d="M421,683c.83-1.82,6.49-.79,8.8-.47,19.3,2.68,43-10.72,42.3-14-.39-1.77-8.38-1.63-13.28-1.07-17,2-20.7,11.94-28.5,10.25-9.37-2-7.47-17.18-23.38-36.45-7.87-9.53-11.2-9.28-16.31-15.54-15.61-19.1-13.91-42.61-5-63.06-19.85,15.54-28.82,41.13-20.37,64.27.43,1.17.89,2.28,1.41,3.42l-.09,0c5.5,15.07,27.55,31.91,39.44,40.09A31.77,31.77,0,0,1,416,681.78l0,.09a21.4,21.4,0,0,0,1.27,2.25,12.47,12.47,0,0,0,8.61,5.38C423.26,687.28,420.35,684.46,421,683Z"></path><path class="cls-40" d="M482.69,588l-.18.06c-.34-1.2-.7-2.35-1.13-3.52-10.73-29.36-45.41-43.69-77.48-32a65.55,65.55,0,0,0-28.54,20.24c16.47-9,37.11-11.75,49.53,4.13,9.84,12-7.8,31.08,2.66,49.55,10.25,16.32,33.43,9.74,41.75,28.41,3.1,9.24,1,16.25-3.76,21.88l3.83-1.4A12.84,12.84,0,0,0,477.88,662s0-.1,0-.15l-.06-.59a49.68,49.68,0,0,1,1.12-19.32C482.69,627.45,487.92,602.28,482.69,588Z"></path><path class="cls-41" d="M442.86,697.86c3.37-13.93,25.7-13.34,31.45-26.59L424.6,689.43l10.1,27.65,18.13,7.64,14.4-5.26C453.15,717.09,437.54,715.48,442.86,697.86Z"></path><path class="cls-42" d="M474.31,671.27a16.14,16.14,0,0,1-1.1,2l6.57,26.43L474,717l3.51-1.28,8.93-17.53-10.1-27.65Z"></path><path class="cls-43" d="M477.17,715.82l-9.65,3.52c2.31.3,4.29,1.24,4.65,2.22a3.12,3.12,0,0,1,.65,3.65A7.33,7.33,0,0,0,477.17,715.82Z"></path><path class="cls-44" d="M519,1032.86c-27.77-10.11-62.42-2.12-79.93,1.91-3.82.88-47.52,11-45,18.12,4.32,12.07,138.68,13.48,146.53-2.86C543.67,1043.74,527.42,1035.93,519,1032.86Z"></path><path class="cls-45" d="M681.52,1013.34c-34.12,6.17-96.35,17.72-96.23,32.73.12,14.51,58.48,25.24,83.67,29.75,196.13,35,647.27,40.58,666.65-42.3,6.55-28-38.83-54.77-55.84-64.8C1245,948.21,1179.56,923.36,681.52,1013.34Z"></path></g></g></svg> 