<?xml version="1.0" encoding="UTF-8"?><svg id="Layer_1" xmlns="http://www.w3.org/2000/svg" width="145.6" height="28" viewBox="0 0 145.6 28"><defs><style>.cls-1{fill:#6e40ee;stroke-width:0px;}</style></defs><path class="cls-1" d="m30.9,14c0-2.4-1.9-4.5-5.1-6,.3-3.4-.6-6.2-2.7-7.4s-4.8-.6-7.6,1.4c-.1-.1-.2-.1-.3-.2C12.4-.1,9.7-.5,7.7.6c-2.1,1.2-2.9,4-2.6,7.4C1.9,9.5,0,11.6,0,14s1.9,4.5,5.1,6v.3c-.2,3.4.7,5.9,2.7,7,.7.4,1.6.6,2.4.6,1.6,0,3.5-.7,5.3-2,1.9,1.3,3.7,2,5.3,2,.8,0,1.7-.2,2.4-.6,2-1.1,2.9-3.6,2.7-7v-.3c3.1-1.4,5-3.6,5-6ZM20.8,1.7c.5,0,1.1.1,1.6.4,1.3.7,2,2.7,1.9,5.2-1.4-.5-2.8-.8-4.3-1-1-1.2-2-2.3-3.1-3.2,1.4-.9,2.8-1.4,3.9-1.4Zm-13.9,7.4c.9-.3,1.8-.6,2.7-.8-.4.5-.8,1.1-1.1,1.7s-.7,1.2-.9,1.8c-.3-.9-.6-1.8-.7-2.7Zm12.1,11.1c-1.2.1-2.4.2-3.5.2s-2.4-.1-3.5-.2c-.8-.1-1.6-.2-2.4-.4-.9-.2-1.8-.5-2.7-.8.1-1,.4-1.9.6-2.7.3-.8.5-1.5.9-2.3.5-1.1,1-2.2,1.6-3.2s1.2-2,2-3c.5-.7,1-1.3,1.5-1.9.6-.7,1.3-1.3,2-1.9.7.6,1.4,1.2,2,1.9.5.6,1,1.2,1.5,1.9.7.9,1.4,1.9,2,3,.6,1,1.1,2.1,1.6,3.2.3.8.6,1.5.8,2.3.3.9.5,1.8.6,2.7-.9.3-1.8.6-2.7.8-.7.1-1.5.3-2.3.4Zm-3.5,1.9c.7,0,1.4,0,2-.1-.6.7-1.3,1.3-2,1.9-.7-.6-1.4-1.2-2-1.9.6,0,1.3.1,2,.1Zm7.9-10.3c-.3-.6-.6-1.2-.9-1.8s-.7-1.2-1.1-1.7c.9.2,1.8.5,2.7.8-.2.9-.4,1.8-.7,2.7h0ZM8.6,2.1c.5-.3,1-.4,1.6-.4,1.1,0,2.5.5,3.9,1.4-1.1,1-2.1,2-3.1,3.2-1.5.2-2.9.5-4.3,1-.1-2.6.6-4.5,1.9-5.2ZM1.7,14c0-1.6,1.4-3.1,3.6-4.2.3,1.4.7,2.8,1.2,4.2-.5,1.4-1,2.8-1.2,4.2-2.3-1.1-3.6-2.7-3.6-4.2h0Zm8.4,12.3c-.5,0-1.1-.1-1.6-.4-1.3-.8-2-2.7-1.9-5.2,1.4.5,2.8.8,4.3,1.1.9,1.2,1.9,2.2,3.1,3.2-1.4.9-2.7,1.3-3.9,1.3Zm12.3-.4c-1.3.7-3.3.4-5.5-1,1.1-1,2.1-2,3.1-3.2,1.5-.2,2.9-.6,4.3-1.1,0,2.7-.6,4.6-1.9,5.3h0Zm3.2-7.6c-.3-1.4-.7-2.9-1.2-4.2.5-1.4,1-2.8,1.2-4.2,2.2,1.1,3.6,2.6,3.6,4.2,0,1.4-1.3,3-3.6,4.2h0Z"/><path class="cls-1" d="m15.5,8.9c-2,2.6-3.4,5.6-4.2,8.7l4.2-2.3,4.2,2.3c-.4-1.6-1-3.2-1.7-4.7-.8-1.3-1.6-2.7-2.5-4Z"/><path class="cls-1" d="m39.6,19.3v-10.6h2.1l.3,1.3c1.2-.9,2.4-1.3,3.7-1.3s2.3.5,2.9,1.5c1.4-1,2.6-1.5,3.8-1.5,2.3,0,3.4,1.4,3.4,4.1v6.6h-2.7v-6.7c0-1.2-.5-1.8-1.5-1.8-.8,0-1.6.5-2.5,1.4v7.1h-2.7v-6.7c0-1.2-.5-1.8-1.5-1.8-.9,0-1.7.5-2.5,1.4v7.1l-2.8-.1Z"/><path class="cls-1" d="m57.4,14c0-3.6,1.8-5.4,5.4-5.4s5.4,1.8,5.4,5.4-1.8,5.4-5.4,5.4-5.3-1.8-5.4-5.4Zm5.4,3.3c1.8,0,2.7-1.1,2.7-3.3s-.9-3.3-2.7-3.3-2.7,1.1-2.7,3.3.9,3.3,2.7,3.3h0Z"/><path class="cls-1" d="m79.9,8.7v10.7h-2.1l-.3-1.4c-1.3.9-2.6,1.4-3.9,1.4-2.5,0-3.7-1.3-3.7-4v-6.7h2.7v6.7c0,1.2.6,1.8,1.7,1.8.9,0,1.9-.5,2.9-1.4v-7.1h2.7Z"/><path class="cls-1" d="m82.7,18.8v-2.2c1.2.5,2.6.7,4.1.7,1.2,0,1.7-.4,1.7-1.1s-.4-1-1.2-1h-1.9c-2.2,0-3.3-1.1-3.3-3.3s1.6-3.4,4.7-3.4c1.3,0,2.6.2,3.8.6v2.2c-1.2-.5-2.5-.7-3.9-.7-1.5,0-2.2.4-2.2,1.1s.4,1,1.3,1h1.7c2.4,0,3.6,1.1,3.6,3.3s-1.5,3.4-4.5,3.4c-1.4,0-2.7-.2-3.9-.6Z"/><path class="cls-1" d="m102.7,15.1h-7c0,1.4,1.2,2.2,3.5,2.2,1.1,0,2.2-.1,3.2-.3v2c-.9.2-2.2.3-3.6.3-3.9,0-5.8-1.8-5.8-5.5,0-3.5,1.8-5.2,5.3-5.2,3.5.1,5,2.2,4.4,6.5Zm-7-2h4.5c.1-1.5-.6-2.3-2.1-2.3s-2.3.8-2.4,2.3Z"/><path class="cls-1" d="m105,19.4v-11.3c0-2.6,1.6-3.9,4.8-3.9.8,0,1.6.1,2.4.4v2.1c-.7-.3-1.5-.4-2.4-.4-1.4,0-2.1.7-2.1,2.3h3.2v2.1h-3.2v8.5l-2.7.2Z"/><path class="cls-1" d="m116.2,4.8v14.5h-2.7V4.8h2.7Z"/><path class="cls-1" d="m118.1,14c0-3.6,1.8-5.4,5.4-5.4s5.4,1.8,5.4,5.4-1.8,5.4-5.4,5.4-5.3-1.8-5.4-5.4Zm5.4,3.3c1.8,0,2.7-1.1,2.7-3.3s-.9-3.3-2.7-3.3-2.7,1.1-2.7,3.3.9,3.3,2.7,3.3Z"/><path class="cls-1" d="m129.8,8.7h2.7l1.6,7.2,2.4-7.2h2.3l2.6,7.2,1.4-7.2h2.8l-2.9,10.7h-2.5l-2.5-7.4-2.5,7.4h-2.6l-2.8-10.7Z"/></svg>