<?xml version="1.0" encoding="utf-8"?>
<!-- Generator: Adobe Illustrator 27.9.0, SVG Export Plug-In . SVG Version: 6.00 Build 0)  -->
<svg version="1.1" id="Layer_1" xmlns="http://www.w3.org/2000/svg" xmlns:xlink="http://www.w3.org/1999/xlink" x="0px" y="0px"
	 viewBox="0 0 316.1 40" style="enable-background:new 0 0 316.1 40;" xml:space="preserve">
<style type="text/css">
	.st0{fill:#FFFFFF;}
</style>
<path class="st0" d="M175.8,1.2l1.3,0.8c0.4,0.2,0.4,0.4,0.4,0.5v11.7h-25.9l-5.9,7.3v-19l0.1-0.3c0.1-0.1,0.2-0.1,0.3-0.2l1.2-0.8
	l0.1-0.1V0.1h-12.9v1.2l1.2,0.8c0.1,0.1,0.2,0.1,0.3,0.2v34.9l-0.1,0.5c-0.1,0.1-0.1,0.2-0.3,0.2l-1.3,0.8v1.1h12.9v-1.2l-1.4-0.8
	c-0.2-0.1-0.3-0.2-0.4-0.2v-16L147,22l1.8-1c0.3-0.2,0.5-0.3,0.8-0.4c0.2-0.1,0.5-0.1,0.7-0.1h26.9v12.3l9.7-10.3V2.1
	c0-0.1,0.2-0.3,0.2-0.3l1.4-0.7V0h-13v1.2H175.8z"/>
<path class="st0" d="M314.9,15.7c-1.5-4.7-5-8.7-10.3-11.6c-4.8-2.7-11.6-4-20.8-4h-35.2v1.2c0,0,1.4,1,1.5,1v4.1h33.6
	c6.8,0,11.8,0.9,14.8,2.7c4.8,2.8,7.1,6.4,7.1,11.1c0,2.2-0.6,4.4-1.9,6.3c-1.4,2-3.4,3.7-5.6,4.7c-3.2,1.6-8.2,2.6-14.7,2.6h-17.5
	V9.2h-9.6v28l-0.1,0.4c-0.1,0.1-0.1,0.2-0.3,0.3l-1.2,0.8l-0.1,0.1v1.2h28.7c4.3,0.1,8.6-0.2,12.9-0.9c3.9-0.8,7.6-2.3,11-4.5
	c2.9-1.8,5.2-4.3,6.8-7.4c1-2.1,1.5-4.3,1.5-6.6C315.6,18.9,315.4,17.3,314.9,15.7z"/>
<path class="st0" d="M206.7,7.4l-31.2,32.4h14.4v-1.4h-0.5c-0.2,0-0.5,0-0.7-0.1c-0.2-0.1-0.4-0.1-0.6-0.1l24.1-25L206.7,7.4z"/>
<path class="st0" d="M238.5,38.6v1.4h14.4l-38-39.9l-5.5,5.8l6.1,6.5l6.4,6.4h-10.8l-5.9,6.1l1.2,0.9l1.4-0.8
	c0.1-0.1,0.3-0.1,0.4-0.1h19.4l12.7,13.5c0,0-0.2,0.2-1.3,0.2H238.5z"/>
<path class="st0" d="M128.7,2.1l1.2-0.8V0.1h-12.8v1.2l1.3,0.8c0.3,0.2,0.4,0.4,0.4,0.5v34.6l-0.1,0.4c-0.1,0.1-0.2,0.2-0.3,0.3
	l-1.3,0.8v1.2h12.8v-1.2l-1.2-0.8c-0.1-0.1-0.2-0.2-0.3-0.2V2.3L128.7,2.1z"/>
<path class="st0" d="M65.3,32.2h-2l-1.7,1c-0.5,0.3-0.7,0.3-0.8,0.4l-28.7,0.1c-6.6,0-11.5-0.8-14.8-2.5c-5-2.5-7.3-6.2-7.3-11.1
	c0-2.2,0.6-4.4,1.9-6.3c2.5-3.8,6.6-6.4,11.1-7c1.2-0.2,2.3-0.3,3.5-0.3h14.8c0.9-0.1,0.8,0.2,0.8,0.3l-0.1,1h1.2l6.4-7.6H31.9
	c-3.2,0-6.3,0.1-9.5,0.4c-1.1,0.1-2.3,0.3-3.4,0.6c-2.9,0.7-5.7,1.8-8.4,3.2c-3.9,2-7.2,5.3-9.2,9.2c-1,2.2-1.5,4.5-1.5,6.9
	c0,6.4,3.5,11.5,10.3,15.2c3.2,1.8,6.7,2.9,10.4,3.5c3.8,0.5,7.7,0.8,11.5,0.7h26.7L65.3,32.2z"/>
<path class="st0" d="M50.6,22.7l6.2-7.7H15.1l-4.2,6.3h37.7c0.7,0.1,1,0.3,1,0.3l-0.1,1.1L50.6,22.7z"/>
<path class="st0" d="M53.9,0.1l-5.8,7.3l1.2,0.4l0.1,0.1L51.2,7c0.4-0.3,1-0.5,1.5-0.5h23.1v30.8l-0.1,0.4c0,0.1-0.1,0.2-0.3,0.2
	l-1.3,0.9V40h12.9v-1.2L85.7,38l-0.3-0.3V6.5h20.5c0.8,0.1,0.9,0.3,0.9,0.3v1.1h1.2l6.3-7.7L53.9,0.1L53.9,0.1z"/>
</svg>
