<?xml version="1.0" encoding="utf-8"?>
<!-- Generator: Adobe Illustrator 27.9.0, SVG Export Plug-In . SVG Version: 6.00 Build 0)  -->
<svg version="1.1" id="Layer_1" xmlns="http://www.w3.org/2000/svg" xmlns:xlink="http://www.w3.org/1999/xlink" x="0px" y="0px"
	 viewBox="0 0 218.1 40" style="enable-background:new 0 0 218.1 40;" xml:space="preserve">
<style type="text/css">
	.st0{fill:#FFFFFF;}
</style>
<path id="path2859" class="st0" d="M74,0.8H62.3v15.3H50.1V0.8H38.4v38.4h11.7V24.1h12.2v15.1H74V0.8z M114.8,31.5V0.8h-11.7v38.4
	h21.2l1.8-7.7H114.8z M94.4,0.8H82.7v38.4h11.7V0.8z M141.9,0.8h-11.7v38.4h11.7V0.8z M199.7,10.6c0-2.1,2.1-3,5.5-3
	c3.6,0,7.1,0.7,10.4,1.9l-1-8.4c-3.5-0.8-7.1-1.2-10.7-1.2C194.4,0,188,3.7,188,11.6c0,13.5,18.3,10.8,18.3,17
	c0,2.4-1.8,3.7-6.1,3.7c-4.6-0.1-9.1-1.2-13.3-3l1.3,8.8c3.9,1.3,8,2,12.2,2c9.8,0,17.8-3.2,17.8-12.9
	C218.1,14.3,199.7,16.7,199.7,10.6 M166.6,30c10.9,0,17.8-5.6,17.8-15.4C184.4,3.9,177.1,0,165,0c-4.8,0-9.5,0.3-14.3,0.8v38.4h11.7
	V30H166.6z M172.9,14.7c0,5-2.4,8.4-8.5,8.4h-1.9V7.3c0.7,0,1.3,0,1.9,0C170.1,7.3,172.9,10,172.9,14.7 M15.9,30
	c10.9,0,17.8-5.6,17.8-15.4C33.7,3.9,26.3,0,14.3,0C9.5,0,4.7,0.3,0,0.8v38.4h11.7V30H15.9z M22.2,14.7c0,5-2.4,8.4-8.5,8.4h-1.9
	V7.3c0.7,0,1.3,0,1.9,0C19.4,7.3,22.2,10,22.2,14.7"/>
</svg>
