<?xml version="1.0" encoding="utf-8"?>
<!-- Generator: Adobe Illustrator 27.9.0, SVG Export Plug-In . SVG Version: 6.00 Build 0)  -->
<svg version="1.1" id="Layer_1" xmlns="http://www.w3.org/2000/svg" xmlns:xlink="http://www.w3.org/1999/xlink" x="0px" y="0px"
	 viewBox="0 0 87.4 40" style="enable-background:new 0 0 87.4 40;" xml:space="preserve">
<style type="text/css">
	.st0{display:none;}
	.st1{display:inline;fill:#08163C;}
	.st2{fill-rule:evenodd;clip-rule:evenodd;fill:#FFFFFF;}
</style>
<g id="Layer_1_00000086678516541645067650000003616014352331259520_" class="st0">
	<path id="path2859" class="st1" d="M74,0.8H62.3v15.3H50.1V0.8H38.4v38.4h11.7V24.1h12.2v15.1H74V0.8z M114.8,31.5V0.8h-11.7v38.4
		h21.2l1.8-7.7H114.8z M94.4,0.8H82.7v38.4h11.7C94.4,39.2,94.4,0.8,94.4,0.8z M141.9,0.8h-11.7v38.4h11.7V0.8z M199.7,10.6
		c0-2.1,2.1-3,5.5-3c3.6,0,7.1,0.7,10.4,1.9l-1-8.4c-3.5-0.8-7.1-1.2-10.7-1.2C194.4,0,188,3.7,188,11.6c0,13.5,18.3,10.8,18.3,17
		c0,2.4-1.8,3.7-6.1,3.7c-4.6-0.1-9.1-1.2-13.3-3l1.3,8.8c3.9,1.3,8,2,12.2,2c9.8,0,17.8-3.2,17.8-12.9
		C218.1,14.3,199.7,16.7,199.7,10.6 M166.6,30c10.9,0,17.8-5.6,17.8-15.4C184.4,3.9,177.1,0,165,0c-4.8,0-9.5,0.3-14.3,0.8v38.4
		h11.7V30H166.6z M172.9,14.7c0,5-2.4,8.4-8.5,8.4h-1.9V7.3c0.7,0,1.3,0,1.9,0C170.1,7.3,172.9,10,172.9,14.7 M15.9,30
		c10.9,0,17.8-5.6,17.8-15.4C33.7,3.9,26.3,0,14.3,0C9.5,0,4.7,0.3,0,0.8v38.4h11.7V30H15.9z M22.2,14.7c0,5-2.4,8.4-8.5,8.4h-1.9
		V7.3c0.7,0,1.3,0,1.9,0C19.4,7.3,22.2,10,22.2,14.7"/>
</g>
<g id="Layer_2_00000177451419816317589400000007434142070388938408_">
	<g>
		<path class="st2" d="M28.3,10.1c-0.2,0.6-2.1,6.1-2.1,6.1s-0.3,0.4-0.5,0c-0.2-0.5-0.7-4.9-4.3-4.9c0,0-3.4,0.1-3.4,3.3
			c0,0,0,1.3,1.3,1.9c0,0,3.4,1.4,4.3,2c0.9,0.6,2.1,1.8,2,3.9c0,0-0.2,5.1-6.5,5.1c0,0-2,0.2-4.2-1.2c-0.3-0.2-2,0.6-2.6,1.1
			c-0.6,0.3-0.5-0.3-0.5-0.3s2.2-6.3,2.4-6.8s0.3,0.1,0.3,0.1c0,5.3,4.8,5.7,4.8,5.7c2.4,0,3.1-2.2,3.1-3.1s-1.1-2.1-4.5-3.4
			C15,18.7,15,15.8,15,15.8c0-5.9,6.5-6,6.5-6s2.3,0,3.7,1.2c0,0,1.6-0.6,2.7-1.3C27.9,9.7,28.6,9.5,28.3,10.1z"/>
		<path class="st2" d="M38.3,15.4c0,0-1.4,3.9-1.6,4.4c-0.1,0.5-0.2,0.7-0.4,0.7s-0.2-0.3-0.2-0.3c0.1-2-1-3.8-2.7-3.8
			c-1.8,0-3.8,3.8-3.8,6.5s2.3,2.5,2.3,2.5c2.6,0,4.1-1.8,4.1-1.8c0.5,0,0.2,0.5,0.2,0.5c-2,3.2-5,3.1-5,3.1c-4.9,0-4.8-4-4.8-4
			c0-6.9,6.5-8.2,7-8.2c0.9-0.1,1.8,0.3,2.4,0.6c0.7,0.4,0.8,0.1,0.8,0.1s1.2-0.8,1.5-0.8C38.5,14.9,38.3,15.4,38.3,15.4z"/>
		<path class="st2" d="M44.1,15.1c-1.1,0-6.9,1.1-6.9,7.9c0,0,0.2,3.8,4.7,4c1.9,0,7.4-1.9,7.5-7.4C49.4,14,44.1,15.1,44.1,15.1z
			 M42.1,25.6c-2.1,0-1.8-2.2-1.8-2.2c0.6-5.1,3.4-7.1,4.6-7c1.4,0.1,1.2,1.9,1.3,1.9C46.2,20.7,44.2,25.6,42.1,25.6z"/>
		<path class="st2" d="M58.6,15.7c-0.1,0.3-0.2,1-0.2,1S58.3,17,57.8,17h-2.6c-0.6,2.2-1.4,4.9-1.6,5.5C53.3,23.6,53.4,25,55,25
			c1.5,0,1.8-0.6,2.3-1c0.5-0.3,0.2,0.3,0.2,0.3c-1.2,2.6-4.5,2.3-4.5,2.3c-3,0-2.8-2.8-2.7-3.4s1.5-5.1,1.6-5.6
			c0.1-0.4-0.1-0.6-0.1-0.6h-0.9c-0.6,0-0.4-0.3-0.4-0.3l5.6-3.7c0.3,0,0.2,0.4,0.2,0.4s-0.3,0.8-0.6,1.9h2.7
			C58.4,15.3,58.6,15.4,58.6,15.7z"/>
		<path class="st2" d="M65.7,24.3c-1.2,2.6-4.5,2.3-4.5,2.3c-3,0-2.8-2.8-2.7-3.4s1.5-5.1,1.6-5.6C60.2,17.2,60,17,60,17h-0.8
			c-0.6,0-0.4-0.3-0.4-0.3l5.6-3.7c0.3,0,0.2,0.4,0.2,0.4L64,15.3h2.7c0,0,0.2,0.1,0.1,0.4c-0.1,0.3-0.2,1-0.2,1S66.5,17,66,17h-2.6
			c-0.6,2.2-1.4,4.9-1.6,5.5c-0.3,1.1-0.2,2.5,1.4,2.5c1.6,0,1.8-0.6,2.3-1C66,23.7,65.7,24.3,65.7,24.3z"/>
		<path class="st2" d="M70.5,26.7c0,0-1.4,0.1-2.9-0.8c-0.1,0-1.4,0.5-1.8,0.7c-0.5,0.2-0.4-0.2-0.4-0.2s1.3-4.3,1.5-4.9
			c0.1-0.3,0.4,0.1,0.4,0.1c0.7,3.5,3.4,3.6,3.4,3.6c1.6,0,2.3-0.8,2.3-1.4c0-0.8-1.2-1.4-3.6-2.3c-2-0.6-2-2.6-2-2.6
			c0-4,4.3-4.2,4.3-4.2s1.9-0.1,3.2,0.7c0,0,1.3-0.6,2-1.1c0,0,0.5-0.1,0.3,0.3c-0.1,0.4-1.6,4.7-1.6,4.7s-0.3,0.4-0.4,0
			s-0.6-3.2-3.1-3.2c0,0-2.1-0.1-2.2,1.7c0,0-0.2,0.8,0.8,1.2c0,0,2.9,1,3.5,1.4c0.9,0.6,1.4,1.7,1.3,2.8
			C75.5,23.2,75.7,26.7,70.5,26.7z"/>
		<path class="st2" d="M77.2,24.9c-0.9,0-1.7,0.7-1.7,1.7s0.8,1.7,1.7,1.7c0.9,0,1.7-0.7,1.7-1.7S78.1,24.9,77.2,24.9z M77.3,28
			c-0.8,0-1.4-0.6-1.4-1.4s0.6-1.4,1.4-1.4s1.4,0.6,1.4,1.4C78.7,27.4,78.1,28,77.3,28z"/>
		<path class="st2" d="M77.5,26.7c0.3,0,0.5-0.2,0.5-0.5c0-0.4-0.2-0.6-0.7-0.6h-0.7v2h0.3l0.1-0.8h0.3l0.5,0.8h0.3L77.5,26.7z
			 M77,26.5v-0.6h0.4c0.2,0,0.4,0.1,0.4,0.3c0,0.3-0.3,0.3-0.5,0.3C77.3,26.5,77,26.5,77,26.5z"/>
		<path class="st2" d="M83.4,11.6C80,8.1,74.5,5.2,67.5,3.2C60.4,1.1,52.2,0,43.7,0C32.1,0,21.3,2,13.1,5.6C4.7,9.4,0,14.5,0,20
			c0,3,1.3,5.8,4,8.4c3.4,3.4,8.9,6.3,15.9,8.4S35.2,40,43.7,40s16.7-1.1,23.8-3.2c7-2.1,12.5-5,15.9-8.4c2.6-2.6,4-5.5,4-8.4
			S86.1,14.2,83.4,11.6z M43.8,38c-16.6,0-31.6-4.3-38.3-11C3.2,24.8,2,22.4,2,20s1.1-4.8,3.4-7C12.1,6.4,27.1,2,43.7,2
			S75.3,6.3,82,13c2.2,2.2,3.4,4.6,3.4,7C85.4,29.7,66.3,38,43.8,38z"/>
		<path class="st2" d="M28.3,10.1c-0.2,0.6-2.1,6.1-2.1,6.1s-0.3,0.4-0.5,0c-0.2-0.5-0.7-4.9-4.3-4.9c0,0-3.4,0.1-3.4,3.3
			c0,0,0,1.3,1.3,1.9c0,0,3.4,1.4,4.3,2c0.9,0.6,2.1,1.8,2,3.9c0,0-0.2,5.1-6.5,5.1c0,0-2,0.2-4.2-1.2c-0.3-0.2-2,0.6-2.6,1.1
			c-0.6,0.3-0.5-0.3-0.5-0.3s2.2-6.3,2.4-6.8s0.3,0.1,0.3,0.1c0,5.3,4.8,5.7,4.8,5.7c2.4,0,3.1-2.2,3.1-3.1s-1.1-2.1-4.5-3.4
			C15,18.7,15,15.8,15,15.8c0-5.9,6.5-6,6.5-6s2.3,0,3.7,1.2c0,0,1.6-0.6,2.7-1.3C27.9,9.7,28.6,9.5,28.3,10.1z"/>
		<path class="st2" d="M38.3,15.4c0,0-1.4,3.9-1.6,4.4c-0.1,0.5-0.2,0.7-0.4,0.7s-0.2-0.3-0.2-0.3c0.1-2-1-3.8-2.7-3.8
			c-1.8,0-3.8,3.8-3.8,6.5s2.3,2.5,2.3,2.5c2.6,0,4.1-1.8,4.1-1.8c0.5,0,0.2,0.5,0.2,0.5c-2,3.2-5,3.1-5,3.1c-4.9,0-4.8-4-4.8-4
			c0-6.9,6.5-8.2,7-8.2c0.9-0.1,1.8,0.3,2.4,0.6c0.7,0.4,0.8,0.1,0.8,0.1s1.2-0.8,1.5-0.8C38.5,14.9,38.3,15.4,38.3,15.4z"/>
		<path class="st2" d="M44.1,15.1c-1.1,0-6.9,1.1-6.9,7.9c0,0,0.2,3.8,4.7,4c1.9,0,7.4-1.9,7.5-7.4C49.4,14,44.1,15.1,44.1,15.1z
			 M42.1,25.6c-2.1,0-1.8-2.2-1.8-2.2c0.6-5.1,3.4-7.1,4.6-7c1.4,0.1,1.2,1.9,1.3,1.9C46.2,20.7,44.2,25.6,42.1,25.6z"/>
		<path class="st2" d="M58.6,15.7c-0.1,0.3-0.2,1-0.2,1S58.3,17,57.8,17h-2.6c-0.6,2.2-1.4,4.9-1.6,5.5C53.3,23.6,53.4,25,55,25
			c1.5,0,1.8-0.6,2.3-1c0.5-0.3,0.2,0.3,0.2,0.3c-1.2,2.6-4.5,2.3-4.5,2.3c-3,0-2.8-2.8-2.7-3.4s1.5-5.1,1.6-5.6
			c0.1-0.4-0.1-0.6-0.1-0.6h-0.9c-0.6,0-0.4-0.3-0.4-0.3l5.6-3.7c0.3,0,0.2,0.4,0.2,0.4s-0.3,0.8-0.6,1.9h2.7
			C58.4,15.3,58.6,15.4,58.6,15.7z"/>
		<path class="st2" d="M65.7,24.3c-1.2,2.6-4.5,2.3-4.5,2.3c-3,0-2.8-2.8-2.7-3.4s1.5-5.1,1.6-5.6C60.2,17.2,60,17,60,17h-0.8
			c-0.6,0-0.4-0.3-0.4-0.3l5.6-3.7c0.3,0,0.2,0.4,0.2,0.4L64,15.3h2.7c0,0,0.2,0.1,0.1,0.4c-0.1,0.3-0.2,1-0.2,1S66.5,17,66,17h-2.6
			c-0.6,2.2-1.4,4.9-1.6,5.5c-0.3,1.1-0.2,2.5,1.4,2.5c1.6,0,1.8-0.6,2.3-1C66,23.7,65.7,24.3,65.7,24.3z"/>
		<path class="st2" d="M70.5,26.7c0,0-1.4,0.1-2.9-0.8c-0.1,0-1.4,0.5-1.8,0.7c-0.5,0.2-0.4-0.2-0.4-0.2s1.3-4.3,1.5-4.9
			c0.1-0.3,0.4,0.1,0.4,0.1c0.7,3.5,3.4,3.6,3.4,3.6c1.6,0,2.3-0.8,2.3-1.4c0-0.8-1.2-1.4-3.6-2.3c-2-0.6-2-2.6-2-2.6
			c0-4,4.3-4.2,4.3-4.2s1.9-0.1,3.2,0.7c0,0,1.3-0.6,2-1.1c0,0,0.5-0.1,0.3,0.3c-0.1,0.4-1.6,4.7-1.6,4.7s-0.3,0.4-0.4,0
			s-0.6-3.2-3.1-3.2c0,0-2.1-0.1-2.2,1.7c0,0-0.2,0.8,0.8,1.2c0,0,2.9,1,3.5,1.4c0.9,0.6,1.4,1.7,1.3,2.8
			C75.5,23.2,75.7,26.7,70.5,26.7z"/>
		<path class="st2" d="M77.2,24.9c-0.9,0-1.7,0.7-1.7,1.7s0.8,1.7,1.7,1.7c0.9,0,1.7-0.7,1.7-1.7S78.1,24.9,77.2,24.9z M77.3,28
			c-0.8,0-1.4-0.6-1.4-1.4s0.6-1.4,1.4-1.4s1.4,0.6,1.4,1.4C78.7,27.4,78.1,28,77.3,28z"/>
		<path class="st2" d="M77.5,26.7c0.3,0,0.5-0.2,0.5-0.5c0-0.4-0.2-0.6-0.7-0.6h-0.7v2h0.3l0.1-0.8h0.3l0.5,0.8h0.3L77.5,26.7z
			 M77,26.5v-0.6h0.4c0.2,0,0.4,0.1,0.4,0.3c0,0.3-0.3,0.3-0.5,0.3C77.3,26.5,77,26.5,77,26.5z"/>
		<path class="st2" d="M27.9,9.7c-1.1,0.7-2.7,1.3-2.7,1.3c-1.4-1.2-3.7-1.2-3.7-1.2s-6.5,0.1-6.5,6c0,0,0,2.9,2.9,3.8
			c3.4,1.3,4.5,2.5,4.5,3.4s-0.7,3.1-3.1,3.1c0,0-4.8-0.4-4.8-5.7c0,0-0.1-0.6-0.3-0.1s-2.4,6.8-2.4,6.8s-0.1,0.6,0.5,0.3
			c0.6-0.5,2.3-1.3,2.6-1.1c2.2,1.4,4.2,1.2,4.2,1.2c6.3,0,6.5-5.1,6.5-5.1c0.1-2.1-1.1-3.3-2-3.9s-4.3-2-4.3-2
			C18,15.9,18,14.6,18,14.6c0-3.2,3.4-3.3,3.4-3.3c3.6,0,4.1,4.4,4.3,4.9c0.2,0.4,0.5,0,0.5,0s1.9-5.5,2.1-6.1
			C28.6,9.5,27.9,9.7,27.9,9.7z M76.9,14.3c-0.7,0.5-2,1.1-2,1.1c-1.3-0.8-3.2-0.7-3.2-0.7s-4.3,0.2-4.3,4.2c0,0,0,2,2,2.6
			c2.4,0.9,3.6,1.5,3.6,2.3c0,0.6-0.7,1.4-2.3,1.4c0,0-2.7-0.1-3.4-3.6c0,0-0.3-0.4-0.4-0.1c-0.2,0.6-1.5,4.9-1.5,4.9
			s-0.1,0.4,0.4,0.2c0.4-0.2,1.7-0.7,1.8-0.7c1.5,0.9,2.9,0.8,2.9,0.8c5.2,0,5-3.5,5-3.5c0.1-1.1-0.4-2.2-1.3-2.8
			C73.6,20,70.7,19,70.7,19c-1-0.4-0.8-1.2-0.8-1.2c0.1-1.8,2.2-1.7,2.2-1.7c2.5,0,3,2.8,3.1,3.2c0.1,0.4,0.4,0,0.4,0
			s1.5-4.3,1.6-4.7C77.4,14.2,76.9,14.3,76.9,14.3z"/>
		<path class="st2" d="M38.3,15.4c0,0-1.4,3.9-1.6,4.4c-0.1,0.5-0.2,0.7-0.4,0.7s-0.2-0.3-0.2-0.3c0.1-2-1-3.8-2.7-3.8
			c-1.8,0-3.8,3.8-3.8,6.5s2.3,2.5,2.3,2.5c2.6,0,4.1-1.8,4.1-1.8c0.5,0,0.2,0.5,0.2,0.5c-2,3.2-5,3.1-5,3.1c-4.9,0-4.8-4-4.8-4
			c0-6.9,6.5-8.2,7-8.2c0.9-0.1,1.8,0.3,2.4,0.6c0.7,0.4,0.8,0.1,0.8,0.1s1.2-0.8,1.5-0.8C38.5,14.9,38.3,15.4,38.3,15.4z"/>
		<path class="st2" d="M44.1,15.1c-1.1,0-6.9,1.1-6.9,7.9c0,0,0.2,3.8,4.7,4c1.9,0,7.4-1.9,7.5-7.4C49.4,14,44.1,15.1,44.1,15.1z
			 M42.1,25.6c-2.1,0-1.8-2.2-1.8-2.2c0.6-5.1,3.4-7.1,4.6-7c1.4,0.1,1.2,1.9,1.3,1.9C46.2,20.7,44.2,25.6,42.1,25.6z"/>
		<path class="st2" d="M58.4,15.3h-2.7c0.3-1.1,0.6-1.9,0.6-1.9s0.1-0.4-0.2-0.4l-5.6,3.7c0,0-0.2,0.3,0.4,0.3h0.9
			c0,0,0.2,0.2,0.1,0.6c-0.1,0.5-1.5,5-1.6,5.6S50,26.6,53,26.6c0,0,3.3,0.3,4.5-2.3c0,0,0.3-0.6-0.2-0.3c-0.5,0.4-0.8,1-2.3,1
			c-1.6,0-1.7-1.4-1.4-2.5c0.2-0.6,1-3.3,1.6-5.5h2.6c0.5,0,0.6-0.3,0.6-0.3s0.1-0.7,0.2-1C58.6,15.4,58.4,15.3,58.4,15.3z
			 M66.7,15.3H64l0.6-1.9c0,0,0.1-0.4-0.2-0.4l-5.6,3.7c0,0-0.2,0.3,0.4,0.3H60c0,0,0.2,0.2,0.1,0.6c-0.1,0.5-1.5,5-1.6,5.6
			s-0.3,3.4,2.7,3.4c0,0,3.3,0.3,4.5-2.3c0,0,0.3-0.6-0.2-0.3c-0.5,0.4-0.7,1-2.3,1c-1.6,0-1.7-1.4-1.4-2.5c0.2-0.6,1-3.3,1.6-5.5
			H66c0.5,0,0.6-0.3,0.6-0.3s0.1-0.7,0.2-1C66.9,15.4,66.7,15.3,66.7,15.3z M77.5,26.7c0.3,0,0.5-0.2,0.5-0.5c0-0.4-0.2-0.6-0.7-0.6
			h-0.7v2h0.3l0.1-0.8h0.3l0.5,0.8h0.3L77.5,26.7z M77,26.5v-0.6h0.4c0.2,0,0.4,0.1,0.4,0.3c0,0.3-0.3,0.3-0.5,0.3
			C77.3,26.5,77,26.5,77,26.5z M78,26.2c0-0.4-0.2-0.6-0.7-0.6h-0.7v2h0.3l0.1-0.8h0.3l0.5,0.8h0.3l-0.6-0.9
			C77.8,26.7,78,26.5,78,26.2z M77,26.5v-0.6h0.4c0.2,0,0.4,0.1,0.4,0.3c0,0.3-0.3,0.3-0.5,0.3C77.3,26.5,77,26.5,77,26.5z
			 M77.2,24.9c-0.9,0-1.7,0.7-1.7,1.7s0.8,1.7,1.7,1.7c0.9,0,1.7-0.7,1.7-1.7S78.1,24.9,77.2,24.9z M77.3,28c-0.8,0-1.4-0.6-1.4-1.4
			s0.6-1.4,1.4-1.4s1.4,0.6,1.4,1.4C78.7,27.4,78.1,28,77.3,28z M77.5,26.7c0.3,0,0.5-0.2,0.5-0.5c0-0.4-0.2-0.6-0.7-0.6h-0.7v2h0.3
			l0.1-0.8h0.3l0.5,0.8h0.3L77.5,26.7z M77,26.5v-0.6h0.4c0.2,0,0.4,0.1,0.4,0.3c0,0.3-0.3,0.3-0.5,0.3C77.3,26.5,77,26.5,77,26.5z"
			/>
		<path class="st2" d="M77.5,26.7c0.3,0,0.5-0.2,0.5-0.5c0-0.4-0.2-0.6-0.7-0.6h-0.7v2h0.3l0.1-0.8h0.3l0.5,0.8h0.3L77.5,26.7z
			 M77,26.5v-0.6h0.4c0.2,0,0.4,0.1,0.4,0.3c0,0.3-0.3,0.3-0.5,0.3C77.3,26.5,77,26.5,77,26.5z"/>
		<path class="st2" d="M77.5,26.7c0.3,0,0.5-0.2,0.5-0.5c0-0.4-0.2-0.6-0.7-0.6h-0.7v2h0.3l0.1-0.8h0.3l0.5,0.8h0.3L77.5,26.7z
			 M77,26.5v-0.6h0.4c0.2,0,0.4,0.1,0.4,0.3c0,0.3-0.3,0.3-0.5,0.3C77.3,26.5,77,26.5,77,26.5z"/>
	</g>
</g>
</svg>
