<?xml version="1.0" encoding="utf-8"?>
<!-- Generator: Adobe Illustrator 27.9.0, SVG Export Plug-In . SVG Version: 6.00 Build 0)  -->
<svg version="1.1" id="Layer_1" xmlns="http://www.w3.org/2000/svg" xmlns:xlink="http://www.w3.org/1999/xlink" x="0px" y="0px"
	 viewBox="0 0 180.4 40" style="enable-background:new 0 0 180.4 40;" xml:space="preserve">
<style type="text/css">
	.st0{fill:#FFFFFF;}
</style>
<polygon class="st0" points="176.4,0 166.6,21.1 162.9,13.1 158.9,13.1 165,26.2 168.2,26.2 180.4,0 "/>
<path class="st0" d="M134.2,39.2h7.9V24.6c0-3.3,1.9-5.7,4.8-5.7s4.2,1.9,4.2,4.7v15.5h8v-17c0-5.8-3.4-9.8-9.1-9.8
	c-3.2-0.1-6.3,1.6-7.9,4.3h-0.2v-3.6h-7.7L134.2,39.2L134.2,39.2z M118.6,12.4c-8.3,0-13.8,6-13.8,13.8S110.3,40,118.6,40
	s13.8-6,13.8-13.8S126.9,12.4,118.6,12.4z M118.6,34.1c-3.8,0-5.8-3.1-5.8-7.9s2-7.9,5.8-7.9s5.8,3.1,5.8,7.9S122.3,34.1,118.6,34.1
	L118.6,34.1z M82.2,39.1h22.3v-6.2H91.8v-0.2l12.1-13.5v-6.1H82.1v6.3h12.2v0.2L82.1,33.2L82.2,39.1L82.2,39.1z M72,39.1h8v-26h-8
	V39.1z M53.5,39.1h8v-12c0-5.4,3.3-7.9,8.2-7.2h0.2v-6.8c-0.6-0.2-1.1-0.2-1.7-0.1c-3.1,0-5.2,1.4-7,4.5H61v-4.4h-7.6L53.5,39.1
	L53.5,39.1z M38.8,34.1c-3.5,0-5.7-2.3-6.1-5.8h18.7c0.1-5.6-1.4-10.1-4.5-12.9c-2.4-2.1-5.5-3.3-8.8-3.2c-7.9,0-13.3,6-13.3,13.8
	s5.2,13.8,13.8,13.8c2.8,0.1,5.6-0.8,8-2.3c2.2-1.4,3.7-3.6,4.4-6.1h-7.6C42.6,33.2,40.8,34.3,38.8,34.1L38.8,34.1z M38.4,18
	c2.8,0,4.7,2.1,5,5.1H32.8C33.4,20.1,35.1,18,38.4,18z M9.1,39.2h8.3l9.1-26h-8l-5.1,16.7h-0.1L8.2,13.1H0L9.1,39.2z M71.9,3.8h8
	v7.1h-8V3.8z"/>
</svg>
