<?xml version="1.0" encoding="utf-8"?>
<!-- Generator: Adobe Illustrator 27.9.0, SVG Export Plug-In . SVG Version: 6.00 Build 0)  -->
<svg version="1.1" id="Layer_1" xmlns="http://www.w3.org/2000/svg" xmlns:xlink="http://www.w3.org/1999/xlink" x="0px" y="0px"
	 viewBox="0 0 162.4 40" style="enable-background:new 0 0 162.4 40;" xml:space="preserve">
<style type="text/css">
	.st0{fill:#FFFFFF;}
</style>
<path class="st0" d="M28.5,1.9L28.5,1.9L28.5,1.9L28.5,1.9z"/>
<path class="st0" d="M40,20c0,11.1-8.9,20.1-20,20.1s-20.1-8.9-20.1-20S8.8,0,19.9,0c3,0,5.9,0.6,8.6,1.9c-0.4-0.1-0.9-0.2-1.4-0.1
	C22.7,1.9,18.4,3.5,15,6.3C11.2,9.5,9,14.1,8.9,19c0,7.5,5.8,12.2,11.2,12.2c5.9,0,10.7-4.7,10.8-10.6c0,0,0-0.1,0-0.1
	c0-5.1-2.8-8.8-8.9-10.2c0-0.1,0-0.2,0-0.3c0.1-3.9,2.7-7.2,6.5-8C35.6,5.2,40,12.3,40,20z"/>
<path class="st0" d="M50.8,13.6l3.8,9.7l3.7-9.8h3.8l-6,14.7h-3.3l-6.2-14.7H50.8z"/>
<path class="st0" d="M63.4,16.8c0.6-1.2,1.5-2.1,2.6-2.7c1.1-0.5,2.2-0.8,3.4-0.8c1.5-0.1,3,0.4,4.2,1.3c1.1,0.8,1.8,1.9,2.3,3.1
	c0.4,1,0.6,2.1,0.6,3.2c0,1.5-0.3,2.9-1,4.2c-0.5,0.9-1.1,1.7-2,2.3c-0.7,0.5-1.5,0.9-2.3,1.1c-0.6,0.1-1.1,0.2-1.7,0.2
	c-1.1,0-2.1-0.2-3.1-0.7c-0.9-0.4-1.6-1-2.2-1.8c-0.6-0.7-1-1.6-1.3-2.5c-0.3-0.9-0.4-1.9-0.4-2.8C62.4,19.5,62.7,18.1,63.4,16.8z
	 M66.4,22.7c0.1,0.5,0.3,1,0.6,1.4c0.2,0.4,0.6,0.8,1,1c0.4,0.2,0.9,0.4,1.4,0.4h0.2c0.5,0,1.1-0.1,1.5-0.5c0.4-0.3,0.8-0.8,1.1-1.2
	c0.3-0.5,0.4-1,0.5-1.5c0.1-0.3,0.1-0.7,0.1-1c0-0.1,0-0.2,0-0.3c0-1-0.2-1.9-0.7-2.8c-0.3-0.6-0.8-1.1-1.5-1.4
	c-0.3-0.2-0.7-0.3-1.1-0.2h-0.1c-0.8,0-1.6,0.3-2.1,0.9c-0.4,0.5-0.8,1.1-0.9,1.7c-0.2,0.6-0.2,1.2-0.2,1.8
	C66.1,21.5,66.2,22.1,66.4,22.7L66.4,22.7z"/>
<path class="st0" d="M79.3,16.8c0.4-0.9,1.1-1.7,2-2.2c0.7-0.5,1.5-0.8,2.3-1.1c0.5-0.1,1.1-0.2,1.6-0.2h0.1c0.9,0,1.7,0.2,2.5,0.4
	V8h3.8v20.4h-3.5L88,27.2c-0.4,0.4-0.9,0.7-1.4,1c-0.6,0.3-1.3,0.5-2,0.4c-0.9,0-1.8-0.2-2.6-0.7c-0.8-0.4-1.5-1-2-1.7
	c-0.5-0.7-0.9-1.6-1.2-2.5c-0.3-1-0.4-1.9-0.4-2.9C78.4,19.5,78.7,18.1,79.3,16.8z M82.3,22.6c0.1,0.5,0.3,1,0.6,1.5
	c0.3,0.4,0.6,0.7,1,1c0.5,0.3,1,0.4,1.5,0.4c0.5,0,1-0.1,1.4-0.4c0.4-0.2,0.8-0.5,1-0.9v-7.3c-0.6-0.3-1.3-0.4-2-0.4
	c-1,0-1.9,0.3-2.6,1c-0.6,0.5-0.9,1.2-1.1,2c-0.1,0.4-0.1,0.7-0.1,1.1c0,0.1,0,0.2,0,0.2C82.1,21.4,82.1,22,82.3,22.6L82.3,22.6z"/>
<path class="st0" d="M94.2,22c0.3-0.6,0.8-1.1,1.3-1.5c0.5-0.4,1.1-0.7,1.7-0.9c0.6-0.2,1.1-0.3,1.7-0.4l3.1-0.4v-0.2
	c0.1-0.6-0.2-1.3-0.6-1.7c-0.5-0.4-1.1-0.6-1.7-0.5c-0.7,0-1.5,0.2-2.1,0.5c-0.6,0.2-1.1,0.5-1.6,0.9L94.8,15c0.7-0.6,1.5-1,2.4-1.2
	c1-0.4,2.1-0.6,3.1-0.6c0.8,0,1.7,0.1,2.4,0.4c0.7,0.3,1.3,0.7,1.7,1.2c0.5,0.5,0.8,1.1,1,1.8c0.2,0.7,0.3,1.4,0.3,2.2v9.5h-3.5
	l-0.1-1.1c-0.4,0.5-1,0.8-1.6,1.1c-0.7,0.3-1.4,0.4-2.1,0.4c-0.6,0-1.2-0.1-1.8-0.3c-0.6-0.2-1.1-0.5-1.6-0.9
	c-0.4-0.4-0.8-0.9-1.1-1.4c-0.3-0.6-0.4-1.3-0.4-2C93.7,23.3,93.9,22.6,94.2,22z M98,25.1c0.4,0.3,1,0.5,1.5,0.4
	c0.5,0,1-0.1,1.4-0.3c0.4-0.2,0.8-0.4,1.2-0.8v-3c-1.2,0.1-2.1,0.2-2.5,0.3c-0.6,0.1-1.2,0.4-1.7,0.8c-0.3,0.4-0.5,0.8-0.5,1.3
	C97.4,24.4,97.6,24.8,98,25.1z"/>
<path class="st0" d="M107.8,13.6h2v-0.8c-0.1-1.2,0.2-2.4,0.9-3.4c0.4-0.8,1.2-1.3,2-1.6c0.7-0.2,1.3-0.3,2-0.3
	c0.8,0,1.5,0.1,2.3,0.2c0.3,0.1,0.7,0.2,1,0.4l-0.4,3.1c-0.2-0.1-0.5-0.2-0.7-0.2c-0.5-0.1-0.9-0.2-1.4-0.2c-0.5,0-0.9,0.1-1.3,0.5
	c-0.4,0.4-0.6,1-0.6,1.6v0.7h3.2v3.1h-3.1v11.7h-3.8V16.7h-2L107.8,13.6L107.8,13.6z"/>
<path class="st0" d="M118.4,16.8c0.6-1.2,1.5-2.1,2.7-2.7c1.1-0.5,2.2-0.8,3.4-0.8c1.5-0.1,3,0.4,4.2,1.3c1.1,0.8,1.9,1.9,2.3,3.1
	c0.4,1,0.6,2.1,0.6,3.2c0,1.5-0.3,2.9-1,4.2c-0.9,1.7-2.4,3-4.3,3.4c-0.6,0.1-1.1,0.2-1.7,0.2c-1.1,0-2.1-0.2-3.1-0.7
	c-0.9-0.4-1.6-1-2.2-1.8c-0.6-0.7-1-1.6-1.3-2.5c-0.3-0.9-0.4-1.9-0.4-2.8C117.4,19.5,117.8,18.1,118.4,16.8z M121.4,22.7
	c0.1,0.5,0.3,1,0.6,1.4c0.3,0.4,0.6,0.7,1,1c0.4,0.2,0.9,0.4,1.4,0.4h0.2c0.5,0,1-0.1,1.5-0.5c0.4-0.3,0.7-0.8,1-1.2
	c0.3-0.5,0.4-1,0.5-1.5c0.1-0.3,0.1-0.7,0.1-1c0-0.1,0-0.2,0-0.3c0-1-0.2-1.9-0.7-2.8c-0.3-0.6-0.8-1.1-1.5-1.4
	c-0.3-0.2-0.7-0.3-1.1-0.2h-0.1c-0.8,0-1.6,0.3-2.1,0.9c-0.4,0.5-0.8,1.1-0.9,1.7c-0.2,0.6-0.2,1.2-0.2,1.8
	C121.1,21.5,121.2,22.1,121.4,22.7L121.4,22.7z"/>
<path class="st0" d="M133.7,13.6h3.4l0.2,1.2c0.6-0.5,1.3-0.9,2-1.1c0.7-0.3,1.5-0.4,2.2-0.4c1.1,0,2.1,0.2,3,0.8
	c0.8,0.5,1.5,1.4,1.8,2.3c0.3,1.1,0.5,2.1,0.5,3.2v8.7H143V20c0.1-0.9-0.2-1.8-0.7-2.6c-0.5-0.6-1.2-1-2-0.9c-0.6,0-1.1,0.2-1.6,0.5
	c-0.5,0.3-0.9,0.6-1.3,1v10.4h-3.8V13.6H133.7z"/>
<path class="st0" d="M149.6,17.7c0.3-0.9,0.8-1.7,1.5-2.4c1.3-1.3,3-2,4.8-2c1.5,0,2.9,0.4,4,1.4c1,0.8,1.7,2,2,3.3
	c0.3,1.1,0.4,2.2,0.5,3.4V22h-9.5c0,1,0.4,2,1.2,2.6c0.8,0.6,1.7,0.9,2.7,0.8c0.9,0,1.7-0.1,2.6-0.5c0.6-0.2,1.1-0.5,1.5-0.9l1,3.1
	c-0.4,0.3-0.8,0.5-1.3,0.7c-0.6,0.2-1.2,0.4-1.8,0.5c-0.8,0.2-1.7,0.3-2.5,0.3c-0.9,0-1.9-0.1-2.8-0.5c-0.9-0.3-1.6-0.8-2.3-1.4
	c-0.7-0.7-1.2-1.5-1.6-2.4c-0.4-1.1-0.6-2.3-0.6-3.4C149,19.8,149.2,18.7,149.6,17.7z M158.6,19.2c0-0.7-0.3-1.4-0.7-1.9
	c-0.3-0.4-0.7-0.7-1.2-0.8c-0.3-0.1-0.5-0.1-0.8-0.2c-0.7,0-1.3,0.3-1.9,0.7c-0.6,0.6-1,1.4-1,2.2L158.6,19.2z"/>
</svg>
